<?xml version="1.0" encoding="UTF-8"?>
<svg version="1.1" xmlns="http://www.w3.org/2000/svg" width="500" height="500">
<path d="M0 0 C165 0 330 0 500 0 C500 165 500 330 500 500 C335 500 170 500 0 500 C0 335 0 170 0 0 Z " fill="#EEF2F7" transform="translate(0,0)"/>
<path d="M0 0 C36.63 0 73.26 0 111 0 C112.3692451 2.73849019 112.12279723 4.90653499 112.12025452 7.97305298 C112.12231651 9.88298286 112.12231651 9.88298286 112.12442017 11.83149719 C112.12088078 13.250458 112.11724597 14.66941857 112.11352539 16.08837891 C112.11324345 17.5763397 112.1134014 19.06430064 112.1139679 20.55226135 C112.11425558 24.59954662 112.10836345 28.64680243 112.10139394 32.69408083 C112.09515567 36.92083876 112.09455623 41.14759731 112.09336853 45.37435913 C112.09025662 53.38184927 112.0820451 61.3893258 112.07201904 69.39680994 C112.06085358 78.51155407 112.05534636 87.62629883 112.05032361 96.7410481 C112.03986238 115.49403979 112.02226563 134.2470188 112 153 C112.90709717 152.97643433 112.90709717 152.97643433 113.83251953 152.95239258 C116.59658296 152.8896812 119.36049621 152.85089589 122.125 152.8125 C123.07632813 152.78736328 124.02765625 152.76222656 125.0078125 152.73632812 C130.43960243 152.67974698 134.33811739 152.87240787 139 156 C141.94665267 159.33437012 143.23976647 161.79116191 143.3125 166.1875 C143 170 143 170 142 173 C142.886875 173.0825 143.77375 173.165 144.6875 173.25 C149.10629914 174.25048283 151.66162105 176.1517624 154.3125 179.8125 C155.68660358 184.18464776 155.41597449 187.8445153 153.875 192.125 C151.61976882 195.58302114 149.71843253 198.16936962 146 200 C141.3156248 200.73224731 136.64438279 200.632448 131.91650391 200.56762695 C130.47721404 200.56621552 129.03792059 200.56701033 127.59863281 200.56983948 C123.70210075 200.57127134 119.80634165 200.54191976 115.90998888 200.50696969 C111.83410617 200.47566737 107.75820482 200.47277241 103.68222046 200.46684265 C95.96865209 200.45131553 88.25543897 200.4103026 80.54202688 200.3600952 C71.7585501 200.30416634 62.97505617 200.27670637 54.19144559 200.25161803 C36.12742916 200.19938557 18.06374316 200.1114655 0 200 C0 197.36 0 194.72 0 192 C30.69 192 61.38 192 93 192 C93 188.04 93 184.08 93 180 C93.33 179.34 93.66 178.68 94 178 C94.66 178 95.32 178 96 178 C95.505 177.030625 95.01 176.06125 94.5 175.0625 C92.12531956 169.47634696 92.18606735 164.31328225 94.1875 158.625 C96.20170349 155.7078777 97.78270935 154.44778079 101 153 C101.99 153 102.98 153 104 153 C104 121.98 104 90.96 104 59 C69.68 59 35.36 59 0 59 C0 56.36 0 53.72 0 51 C24.09 51 48.18 51 73 51 C73 36.81 73 22.62 73 8 C48.91 8 24.82 8 0 8 C0 5.36 0 2.72 0 0 Z " fill="#326CA3" transform="translate(278,118)"/>
<path d="M0 0 C0 0.66 0 1.32 0 2 C0.70511719 2.08378906 1.41023438 2.16757813 2.13671875 2.25390625 C11.39289879 4.66581674 20.12580713 14.0579328 25 22 C25 22.99 25 23.98 25 25 C25.66 25 26.32 25 27 25 C27.98684881 27.37205861 28.9645755 29.74723487 29.9375 32.125 C30.21529297 32.79015625 30.49308594 33.4553125 30.77929688 34.140625 C36.32991687 47.78311269 35.39567333 64.11547557 29.93359375 77.640625 C26.61496254 84.78170603 21.94623097 91.76008928 16 97 C15.34 97 14.68 97 14 97 C14 97.66 14 98.32 14 99 C0.27391886 110.5941579 -14.37354972 114.35620579 -32 113 C-39.99776996 111.89099748 -47.00492811 110.0571417 -54 106 C-54 105.34 -54 104.68 -54 104 C-55.32 103.67 -56.64 103.34 -58 103 C-58 100.03 -58 97.06 -58 94 C-56.68 94.33 -55.36 94.66 -54 95 C-54 95.66 -54 96.32 -54 97 C-53.113125 97.268125 -52.22625 97.53625 -51.3125 97.8125 C-48 99 -48 99 -45.625 100.5 C-39.31818881 104.10389211 -32.58143567 104.31820002 -25.5 104.25 C-24.29537109 104.26160156 -24.29537109 104.26160156 -23.06640625 104.2734375 C-14.73978512 104.24644683 -8.46972188 102.57532239 -1.1875 98.4375 C4.77627119 95.07457627 4.77627119 95.07457627 8 94 C8 93.34 8 92.68 8 92 C8.61875 91.9175 9.2375 91.835 9.875 91.75 C12.7210433 90.74551413 12.70115802 89.68851207 14 87 C15.32040745 85.0744058 16.65510143 83.15856929 18 81.25 C22.25284985 74.9246563 24.48568261 69.77092171 24 62 C19.33637931 59.20182758 15.3722575 58.23997132 10 59 C4.63445371 60.72788779 1.87875169 63.03104479 -2 67 C-11.00856247 74.24125768 -18.43680225 77.0021438 -30 76 C-33.625 75 -33.625 75 -36 74 C-36 73.34 -36 72.68 -36 72 C-36.9075 71.7525 -37.815 71.505 -38.75 71.25 C-42.12496123 69.95193799 -43.74102121 68.78028159 -46 66 C-46 65.34 -46 64.68 -46 64 C-46.86625 63.71125 -47.7325 63.4225 -48.625 63.125 C-51.75 62.08333333 -54.875 61.04166667 -58 60 C-58 41.85 -58 23.7 -58 5 C-37.72552238 -5.13723881 -21.54758515 -6.74114396 0 0 Z " fill="#88CBFC" transform="translate(336,189)"/>
<path d="M0 0 C2 1.125 2 1.125 4 3 C4 4.98 4 6.96 4 9 C38.32 9 72.64 9 108 9 C108 40.02 108 71.04 108 103 C102 106 102 106 100 106 C99.34 107.98 98.68 109.96 98 112 C97.34 112 96.68 112 96 112 C95.67 115.63 95.34 119.26 95 123 C95.66 123 96.32 123 97 123 C97.5625 124.9375 97.5625 124.9375 98 127 C97.67 127.33 97.34 127.66 97 128 C96.76518307 130.18292774 96.58636677 132.37203174 96.4375 134.5625 C96.31181641 136.35880859 96.31181641 136.35880859 96.18359375 138.19140625 C96.12300781 139.11824219 96.06242187 140.04507813 96 141 C84.1869235 141.06943466 72.37389536 141.12277803 60.56065655 141.15543652 C55.07560214 141.17110899 49.59068709 141.19237618 44.10571289 141.22631836 C38.8148594 141.2588553 33.52414015 141.27684109 28.23319435 141.28463173 C26.21211444 141.29018543 24.19104208 141.30103011 22.17001915 141.31719017 C19.34454704 141.3388891 16.51963348 141.34197008 13.6940918 141.34057617 C12.85396042 141.351362 12.01382904 141.36214783 11.14823914 141.3732605 C5.3909779 141.34241803 5.3909779 141.34241803 3.26153278 139.47745228 C2.63707406 138.7461134 2.63707406 138.7461134 2 138 C2.66 138 3.32 138 4 138 C3.835 137.175 3.67 136.35 3.5 135.5 C2.94103955 131.58727683 2.93192813 127.94816827 3 124 C4.65 124.33 6.3 124.66 8 125 C8 125.66 8 126.32 8 127 C8.886875 127.28875 9.77375 127.5775 10.6875 127.875 C12.61307752 128.52896972 14.52836088 129.21957855 16.40625 130 C29.05616384 134.87707522 45.36999655 134.70563841 58 130 C63.86303379 127.28168433 69.04302522 124.15746272 74 120 C74.66 120 75.32 120 76 120 C76 119.34 76 118.68 76 118 C77.010625 117.195625 78.02125 116.39125 79.0625 115.5625 C88.29949945 107.91808666 93.67195144 95.74353049 95 84 C95.70918788 71.74292019 94.66215064 61.39457758 89.8046875 50.06640625 C89 48 89 48 89 46 C88.34 46 87.68 46 87 46 C86.62875 45.154375 86.2575 44.30875 85.875 43.4375 C80.94944009 34.40730683 71.87976726 26.29325575 62 23 C62 22.34 62 21.68 62 21 C60.845 20.87625 59.69 20.7525 58.5 20.625 C55.63913013 20.31847823 53.10933928 19.75537526 50.31640625 18.98828125 C45.68125884 17.8087392 41.20690618 17.57689225 36.4375 17.5625 C35.56923584 17.55935791 34.70097168 17.55621582 33.80639648 17.55297852 C26.62581986 17.68422999 20.71843536 19.19980915 14.06640625 21.80859375 C10.70132842 23.11604437 7.61836508 24 4 24 C4 21.03 4 18.06 4 15 C3.34 14.67 2.68 14.34 2 14 C2 12.68 2 11.36 2 10 C1.34 9.34 0.68 8.68 0 8 C0.66 8 1.32 8 2 8 C1.67 7.236875 1.34 6.47375 1 5.6875 C0 3 0 3 0 0 Z " fill="#F7FCFB" transform="translate(274,168)"/>
<path d="M0 0 C25.08 0 50.16 0 76 0 C76 14.19 76 28.38 76 43 C51.58 43 27.16 43 2 43 C2 29.14 2 15.28 2 1 C1.34 0.67 0.68 0.34 0 0 Z " fill="#F8FDFA" transform="translate(275,126)"/>
<path d="M0 0 C0 0.66 0 1.32 0 2 C0.70511719 2.08378906 1.41023438 2.16757813 2.13671875 2.25390625 C11.39289879 4.66581674 20.12580713 14.0579328 25 22 C25 22.99 25 23.98 25 25 C25.66 25 26.32 25 27 25 C27.98684881 27.37205861 28.9645755 29.74723487 29.9375 32.125 C30.21529297 32.79015625 30.49308594 33.4553125 30.77929688 34.140625 C36.32991687 47.78311269 35.39567333 64.11547557 29.93359375 77.640625 C26.61496254 84.78170603 21.94623097 91.76008928 16 97 C15.34 97 14.68 97 14 97 C14 97.66 14 98.32 14 99 C0.27391886 110.5941579 -14.37354972 114.35620579 -32 113 C-39.99776996 111.89099748 -47.00492811 110.0571417 -54 106 C-54 105.34 -54 104.68 -54 104 C-55.32 103.67 -56.64 103.34 -58 103 C-58 100.03 -58 97.06 -58 94 C-56.68 94.33 -55.36 94.66 -54 95 C-54 95.66 -54 96.32 -54 97 C-53.113125 97.268125 -52.22625 97.53625 -51.3125 97.8125 C-48 99 -48 99 -45.625 100.5 C-39.31818881 104.10389211 -32.58143567 104.31820002 -25.5 104.25 C-24.29537109 104.26160156 -24.29537109 104.26160156 -23.06640625 104.2734375 C-14.73978512 104.24644683 -8.46972188 102.57532239 -1.1875 98.4375 C4.77627119 95.07457627 4.77627119 95.07457627 8 94 C8 93.34 8 92.68 8 92 C8.61875 91.9175 9.2375 91.835 9.875 91.75 C12.7210433 90.74551413 12.70115802 89.68851207 14 87 C15.32040745 85.0744058 16.65510143 83.15856929 18 81.25 C22.25284985 74.9246563 24.48568261 69.77092171 24 62 C19.33637931 59.20182758 15.3722575 58.23997132 10 59 C4.63445371 60.72788779 1.87875169 63.03104479 -2 67 C-11.00856247 74.24125768 -18.43680225 77.0021438 -30 76 C-33.625 75 -33.625 75 -36 74 C-36 73.34 -36 72.68 -36 72 C-36.9075 71.7525 -37.815 71.505 -38.75 71.25 C-42.12496123 69.95193799 -43.74102121 68.78028159 -46 66 C-46 65.34 -46 64.68 -46 64 C-46.86625 63.71125 -47.7325 63.4225 -48.625 63.125 C-51.75 62.08333333 -54.875 61.04166667 -58 60 C-58 57.36 -58 54.72 -58 52 C-49.71279762 53.01063444 -44.86794039 55.84622829 -38.8515625 61.3515625 C-33.5534995 66.0684034 -28.38904283 67.39015412 -21.453125 67.3671875 C-17.7399666 66.81139628 -14.98357653 65.0848105 -11.84765625 63.09375 C-10 62 -10 62 -8 62 C-8 61.34 -8 60.68 -8 60 C-2.52380952 55 -2.52380952 55 0 55 C0 54.34 0 53.68 0 53 C7.82181872 49.45804436 15.17208539 48.46985332 23.34375 51.5234375 C24.5503125 52.01070312 25.756875 52.49796875 27 53 C26.23695073 50.12273121 25.46487711 47.24839963 24.6875 44.375 C24.47416016 43.56675781 24.26082031 42.75851563 24.04101562 41.92578125 C22.78160858 37.3016897 21.23719736 33.26445245 19 29 C19 28.34 19 27.68 19 27 C18.34 27 17.68 27 17 27 C13 21.58823529 13 21.58823529 13 19 C12.360625 18.731875 11.72125 18.46375 11.0625 18.1875 C9 17 9 17 8 14 C6.68210567 13.61007255 5.34339102 13.29015418 4 13 C1.05180909 11.55538645 -1.83691582 10.01619799 -4.734375 8.47265625 C-15.10912219 3.79409203 -28.09125852 3.28579002 -39.171875 5.6875 C-41.61084882 6.6195919 -43.75354773 7.67145296 -46 9 C-46.90492188 9.52851563 -47.80984375 10.05703125 -48.7421875 10.6015625 C-50.4995974 11.65202564 -52.24366514 12.72538088 -53.96875 13.828125 C-56 15 -56 15 -58 15 C-58 11.7 -58 8.4 -58 5 C-38.44591571 -5.38180764 -21.14576909 -6.61543614 0 0 Z " fill="#2D6CA6" transform="translate(336,189)"/>
<path d="M0 0 C-0.78729331 11.97228791 -5.96610688 21.93071148 -15 30 C-15.66 30 -16.32 30 -17 30 C-17 30.66 -17 31.32 -17 32 C-31.39508984 42.32434722 -46.0310004 45.1345887 -63.4765625 42.46875 C-68.60815206 41.16818185 -73.03117238 39.55105629 -77 36 C-77.875 33.25 -77.875 33.25 -78 31 C-79.94603274 30.40929986 -79.94603274 30.40929986 -82 30 C-82.495 30.495 -82.495 30.495 -83 31 C-84.03974499 27.58934861 -84.11508506 24.47735158 -84.09765625 20.921875 C-84.09443359 19.76171875 -84.09121094 18.6015625 -84.08789062 17.40625 C-84.07951172 16.1996875 -84.07113281 14.993125 -84.0625 13.75 C-84.05798828 12.52796875 -84.05347656 11.3059375 -84.04882812 10.046875 C-84.03704815 7.03120054 -84.02059853 4.01562502 -84 1 C-82.24397345 0.93559667 -80.4872624 0.88968201 -78.73046875 0.8515625 C-77.75231201 0.82400879 -76.77415527 0.79645508 -75.76635742 0.76806641 C-71.42187123 1.13231156 -69.83181492 2.78550739 -67 6 C-67 6.66 -67 7.32 -67 8 C-65.02 8.66 -63.04 9.32 -61 10 C-61 10.66 -61 11.32 -61 12 C-51.25888522 14.05076101 -42.12154385 13.77079425 -33.5078125 8.46484375 C-31.93739646 7.40368403 -30.38222968 6.319394 -28.84765625 5.20703125 C-27 4 -27 4 -25 4 C-24.7525 3.401875 -24.505 2.80375 -24.25 2.1875 C-22.51859232 -0.84246345 -20.49141532 -2.41408684 -17.25 -3.6875 C-9.89382811 -4.70919054 -6.12687445 -4.08458297 0 0 Z " fill="#F9FCFC" transform="translate(361,251)"/>
<path d="M0 0 C13.06512511 -0.04634551 26.13023064 -0.08188054 39.19542122 -0.10362434 C45.26214629 -0.11406039 51.32881511 -0.12821647 57.39550781 -0.15087891 C63.25046212 -0.17261345 69.10536232 -0.18456997 74.96035385 -0.18975449 C77.19385505 -0.19344912 79.42735329 -0.20066378 81.66083145 -0.21146011 C84.78974044 -0.22598297 87.918426 -0.22797758 91.04736328 -0.22705078 C91.97021622 -0.23424133 92.89306915 -0.24143188 93.84388733 -0.24884033 C103.09744156 -0.21919142 103.09744156 -0.21919142 107 2 C109.89281322 8.06331986 109.2956497 14.90169634 109.29052734 21.49707031 C109.29724457 22.74173065 109.30396179 23.98639099 109.31088257 25.26876831 C109.3265755 28.6652162 109.33323428 32.06141955 109.33451414 35.4578867 C109.3359393 37.58080904 109.34021551 39.70370599 109.34550858 41.82662201 C109.36397436 49.23469159 109.37218244 56.64268941 109.37060547 64.05078125 C109.36940098 70.95549011 109.39057184 77.85988795 109.4220928 84.76451802 C109.44821701 90.69842984 109.45897459 96.63223969 109.45769465 102.5662086 C109.45718441 106.10814684 109.46290305 109.64980763 109.48405075 113.19168854 C109.50695592 117.1347533 109.49793599 121.07738724 109.48583984 125.02050781 C109.49707886 126.1956192 109.50831787 127.37073059 109.51989746 128.58145142 C109.51150848 129.65247101 109.50311951 130.7234906 109.49447632 131.82696533 C109.49556585 132.75902424 109.49665539 133.69108315 109.49777794 134.65138626 C109 137 109 137 106.96909523 138.82331467 C106.3192938 139.21162083 105.66949238 139.59992699 105 140 C105 138.35 105 136.7 105 135 C105.33 135 105.66 135 106 135 C105.99907821 134.35247332 105.99815641 133.70494663 105.99720669 133.03779793 C105.9751435 117.29804883 105.95858455 101.5583051 105.94818783 85.81854439 C105.9430267 78.20698619 105.93598748 70.5954383 105.92456055 62.98388672 C105.91460813 56.35136752 105.90814524 49.71885579 105.90591151 43.08632934 C105.90460535 39.57292563 105.90152548 36.05954327 105.89426994 32.54614639 C105.88624502 28.62857913 105.88600922 24.71103296 105.88647461 20.79345703 C105.88287933 19.62245453 105.87928406 18.45145203 105.87557983 17.2449646 C105.8769545 16.18203186 105.87832916 15.11909912 105.87974548 14.0239563 C105.87882369 13.09663256 105.8779019 12.16930882 105.87695217 11.21388435 C106 9 106 9 107 7 C92.645 7.495 92.645 7.495 78 8 C77.67 22.52 77.34 37.04 77 52 C84.92 52 92.84 52 101 52 C100.34 53.32 99.68 54.64 99 56 C66.33 56 33.66 56 0 56 C0 54.35 0 52.7 0 51 C23.43 51 46.86 51 71 51 C71.33 36.48 71.66 21.96 72 7 C47.91 7 23.82 7 -1 7 C-0.34 6.34 0.32 5.68 1 5 C0.67958603 2.39719432 0.67958603 2.39719432 0 0 Z " fill="#286BA9" transform="translate(279,119)"/>
<path d="M0 0 C2.97 0.495 2.97 0.495 6 1 C6 1.33 6 1.66 6 2 C19.86 2.495 19.86 2.495 34 3 C34.33 2.34 34.66 1.68 35 1 C40.87924528 5.33207547 40.87924528 5.33207547 42 9 C42.32134878 13.09296868 42.31003214 17.06990358 41 21 C41.99 21 42.98 21 44 21 C43.505 22.485 43.505 22.485 43 24 C42.34 23.67 41.68 23.34 41 23 C41.495 24.485 41.495 24.485 42 26 C38.87492367 26.02773736 35.75015228 26.04870421 32.625 26.0625 C31.68068115 26.06725342 30.7363623 26.07200684 29.76342773 26.0769043 C22.76493094 26.07983425 15.8288782 25.79040801 8.86376953 25.09204102 C4.04399401 24.70652691 1.11926824 25.49233905 -3 28 C-2.979375 27.071875 -2.95875 26.14375 -2.9375 25.1875 C-2.84230396 21.97713989 -2.84230396 21.97713989 -4 19 C-4.66 19 -5.32 19 -6 19 C-6.02698189 17.37509046 -6.04638757 15.75005367 -6.0625 14.125 C-6.07410156 13.22007812 -6.08570313 12.31515625 -6.09765625 11.3828125 C-6 9 -6 9 -5 7 C-4.360625 6.690625 -3.72125 6.38125 -3.0625 6.0625 C-0.68028507 5.04654078 -0.68028507 5.04654078 1 2 C0.67 1.34 0.34 0.68 0 0 Z M6 0 C8 1 8 1 8 1 Z " fill="#286DAE" transform="translate(379,271)"/>
<path d="M0 0 C7.92 0 15.84 0 24 0 C24 14.19 24 28.38 24 43 C16.08 43 8.16 43 0 43 C0 28.81 0 14.62 0 0 Z " fill="#EEF8F8" transform="translate(358,126)"/>
<path d="M0 0 C31.02 0 62.04 0 94 0 C94 0.99 94 1.98 94 3 C97.96 3 101.92 3 106 3 C106 3.33 106 3.66 106 4 C121.84 4.495 121.84 4.495 138 5 C138 5.99 138 6.98 138 8 C92.46 8 46.92 8 0 8 C0 5.36 0 2.72 0 0 Z " fill="#2263A6" transform="translate(278,310)"/>
<path d="M0 0 C1.98 0 3.96 0 6 0 C7.23839599 6.65637843 7.09139136 13.2471936 7 20 C7.66 20 8.32 20 9 20 C9 13.4 9 6.8 9 0 C11.97 0 14.94 0 18 0 C18.33 5.94 18.66 11.88 19 18 C19.66 12.06 20.32 6.12 21 0 C22.65 0 24.3 0 26 0 C26.22111035 6.74386581 25.7612068 13.29933882 25.0625 20 C24.97564941 20.84925049 24.88879883 21.69850098 24.79931641 22.57348633 C24.71214355 23.37423584 24.6249707 24.17498535 24.53515625 25 C24.456604 25.721875 24.37805176 26.44375 24.29711914 27.1875 C24 29 24 29 23 31 C20.36 31 17.72 31 15 31 C14.67 26.71 14.34 22.42 14 18 C13.67 18 13.34 18 13 18 C12.67 22.29 12.34 26.58 12 31 C9.03 31 6.06 31 3 31 C1.71237806 20.6740221 0.6257441 10.3906455 0 0 Z " fill="#75ACD2" transform="translate(161,182)"/>
<path d="M0 0 C0.90009293 -0.0066568 1.80018585 -0.0133136 2.72755432 -0.02017212 C4.63320875 -0.03030732 6.53889873 -0.03498887 8.44458008 -0.03466797 C11.36403745 -0.03904023 14.2819823 -0.0753473 17.20117188 -0.11328125 C19.05077607 -0.11914935 20.90038746 -0.12311879 22.75 -0.125 C23.62506699 -0.13937103 24.50013397 -0.15374207 25.40171814 -0.16854858 C31.40883912 -0.12314845 31.40883912 -0.12314845 34.02758789 2.13427734 C35.40285108 5.4476953 34.77941989 7.91942033 33.94140625 11.3359375 C30.53099458 13.04114333 26.63607086 12.52087638 22.8828125 12.5390625 C21.53267311 12.54761261 21.53267311 12.54761261 20.15525818 12.55633545 C18.24959491 12.56578951 16.34391525 12.57232104 14.43823242 12.57617188 C11.51907975 12.585887 8.60062824 12.61691017 5.68164062 12.6484375 C3.83203544 12.65496652 1.98242521 12.66021739 0.1328125 12.6640625 C-0.74225449 12.6764093 -1.61732147 12.6887561 -2.51890564 12.70147705 C-3.33307449 12.69847595 -4.14724335 12.69547485 -4.98608398 12.69238281 C-6.05958351 12.69785126 -6.05958351 12.69785126 -7.1547699 12.70343018 C-9.66662016 12.21857094 -10.56701172 11.39166609 -12.05859375 9.3359375 C-11.57369953 0.1229474 -8.2876404 0.02103015 0 0 Z " fill="#F1F9FB" transform="translate(390.05859375,297.6640625)"/>
<path d="M0 0 C11 0 11 0 14 2 C15.2893514 6.6877133 15.17304103 11.30783589 14 16 C14.33 16.33 14.66 16.66 15 17 C15.09886353 18.62252492 15.12971167 20.24947273 15.125 21.875 C15.12757813 22.75929687 15.13015625 23.64359375 15.1328125 24.5546875 C15 27 15 27 14 30 C9.81537205 32.09231398 4.67855628 31 0 31 C0 20.77 0 10.54 0 0 Z " fill="#7AACCE" transform="translate(226,225)"/>
<path d="M0 0 C3.62531608 1.8741654 5.69121639 4.07364917 7 8 C7.12781786 10.67394964 7.04391871 13.32095857 7 16 C6.34 16 5.68 16 5 16 C4.67 16.99 4.34 17.98 4 19 C3.34 19 2.68 19 2 19 C1.34 20.32 0.68 21.64 0 23 C-7.61406844 23.76140684 -7.61406844 23.76140684 -10.8984375 21.95703125 C-13.82928025 19.51942789 -15.82303439 17.63910769 -16.23828125 13.79296875 C-16.43980708 6.71835156 -16.43980708 6.71835156 -14.125 2.9375 C-9.93719923 -0.88078894 -5.4558316 -0.76030731 0 0 Z " fill="#2766A1" transform="translate(332,136)"/>
<path d="M0 0 C3.12810439 1.45559602 5.14144302 3.08269849 7 6 C7.86988809 9.51883761 7.85527052 12.47933163 7 16 C4.625 19.125 4.625 19.125 2 21 C1.34 21 0.68 21 0 21 C0 21.66 0 22.32 0 23 C-9.14634146 23.30487805 -9.14634146 23.30487805 -12 21 C-13.25 18.375 -13.25 18.375 -14 16 C-14.66 16 -15.32 16 -16 16 C-16.33153909 9.47973113 -15.84593294 6.17430981 -11.375 1.1875 C-7.57510802 -0.71244599 -4.14546155 -0.82770122 0 0 Z " fill="#336DA3" transform="translate(300,136)"/>
<path d="M0 0 C0.8971875 0.309375 0.8971875 0.309375 1.8125 0.625 C0 3.125 0 3.125 -2.1875 5.625 C-3.1775 5.625 -4.1675 5.625 -5.1875 5.625 C-5.5175 9.585 -5.8475 13.545 -6.1875 17.625 C-5.5275 17.625 -4.8675 17.625 -4.1875 17.625 C-4.1875 18.285 -4.1875 18.945 -4.1875 19.625 C-3.1975 19.955 -2.2075 20.285 -1.1875 20.625 C-1.8475 20.625 -2.5075 20.625 -3.1875 20.625 C-2.8575 22.275 -2.5275 23.925 -2.1875 25.625 C-1.52878906 25.12355469 -0.87007813 24.62210937 -0.19140625 24.10546875 C3.65746564 22.2085605 6.73639852 22.52942431 10.875 22.9375 C17.91059721 23.48938359 24.8797491 23.72491642 31.9375 23.6875 C32.82058838 23.68339111 33.70367676 23.67928223 34.61352539 23.67504883 C36.67987964 23.66252298 38.74619897 23.64441201 40.8125 23.625 C40.8125 22.965 40.8125 22.305 40.8125 21.625 C41.4725 21.625 42.1325 21.625 42.8125 21.625 C43.1425 20.965 43.4725 20.305 43.8125 19.625 C42.8225 19.295 41.8325 18.965 40.8125 18.625 C45.68081281 19.07786631 48.29809226 20.20821469 51.8125 23.625 C54.33720277 27.11149431 54.17476929 30.42267625 53.8125 34.625 C52.23525698 38.60566095 51.40249089 40.23167274 47.8125 42.625 C47.8125 41.305 47.8125 39.985 47.8125 38.625 C48.4725 38.295 49.1325 37.965 49.8125 37.625 C49.4825 36.635 49.1525 35.645 48.8125 34.625 C48.1525 34.625 47.4925 34.625 46.8125 34.625 C45.8225 36.275 44.8325 37.925 43.8125 39.625 C24.5075 39.13 24.5075 39.13 4.8125 38.625 C4.8125 38.295 4.8125 37.965 4.8125 37.625 C18.0125 37.295 31.2125 36.965 44.8125 36.625 C45.45965023 29.99480013 45.45965023 29.99480013 42.8125 26.625 C39.71405007 26.32119293 36.81922387 26.20517234 33.71875 26.2265625 C32.3650531 26.22225723 32.3650531 26.22225723 30.98400879 26.21786499 C29.074131 26.21582161 27.16423241 26.22137056 25.25439453 26.23388672 C22.32407012 26.24993663 19.39512505 26.23404741 16.46484375 26.21484375 C14.61197611 26.21682613 12.75910933 26.22066971 10.90625 26.2265625 C10.02602173 26.22048981 9.14579346 26.21441711 8.2388916 26.2081604 C5.51783358 26.20438344 5.51783358 26.20438344 1.8125 26.625 C-0.37129446 29.9006917 -0.73025639 30.82570529 -0.1875 34.625 C1.71066542 37.4155817 1.71066542 37.4155817 3.8125 39.625 C-0.9375 38.75 -0.9375 38.75 -3.1875 37.625 C-3.57921753 35.97108154 -3.90807545 34.30154729 -4.1875 32.625 C-4.6825 31.14 -4.6825 31.14 -5.1875 29.625 C-4.8575 28.635 -4.5275 27.645 -4.1875 26.625 C-4.8475 26.625 -5.5075 26.625 -6.1875 26.625 C-6.5175 29.595 -6.8475 32.565 -7.1875 35.625 C-7.5175 35.625 -7.8475 35.625 -8.1875 35.625 C-8.21448189 34.00009046 -8.23388757 32.37505367 -8.25 30.75 C-8.26160156 29.84507812 -8.27320313 28.94015625 -8.28515625 28.0078125 C-8.1875 25.625 -8.1875 25.625 -7.1875 23.625 C-6.5275 23.625 -5.8675 23.625 -5.1875 23.625 C-5.6825 22.655625 -6.1775 21.68625 -6.6875 20.6875 C-9.08080791 15.05752806 -9.04553048 9.8722227 -6.875 4.1875 C-4.96898318 1.29317817 -3.6725047 -0.62957223 0 0 Z " fill="#2E669B" transform="translate(379.1875,272.375)"/>
<path d="M0 0 C1.98 0 3.96 0 6 0 C6 4.29 6 8.58 6 13 C6.99 13 7.98 13 9 13 C9 8.71 9 4.42 9 0 C10.98 0 12.96 0 15 0 C15.02465622 4.25414623 15.04283899 8.50825498 15.05493164 12.76245117 C15.05997101 14.21070073 15.06680253 15.65894517 15.07543945 17.10717773 C15.08752247 19.18474588 15.09323211 21.26224697 15.09765625 23.33984375 C15.10289307 24.59144287 15.10812988 25.84304199 15.11352539 27.13256836 C15 30 15 30 14 31 C12.35 31 10.7 31 9 31 C9 26.71 9 22.42 9 18 C8.01 18 7.02 18 6 18 C6 22.29 6 26.58 6 31 C4.02 31 2.04 31 0 31 C0 20.77 0 10.54 0 0 Z " fill="#81AFCC" transform="translate(242,182)"/>
<path d="M0 0 C3.3 0 6.6 0 10 0 C10.50469616 4.22862004 11.00293584 8.45797659 11.5 12.6875 C11.64308594 13.88568359 11.78617188 15.08386719 11.93359375 16.31835938 C12.06894531 17.47529297 12.20429688 18.63222656 12.34375 19.82421875 C12.46943359 20.88729248 12.59511719 21.95036621 12.72460938 23.0456543 C12.97394201 25.72045416 13.05207267 28.31608769 13 31 C11.02 31 9.04 31 7 31 C7 28.69 7 26.38 7 24 C5.68 24 4.36 24 3 24 C3 26.31 3 28.62 3 31 C1.02 31 -0.96 31 -3 31 C-2.30366068 20.6282091 -1.1934991 10.32434658 0 0 Z " fill="#79ACD2" transform="translate(198,182)"/>
<path d="M0 0 C1.28519531 -0.00386719 2.57039063 -0.00773437 3.89453125 -0.01171875 C4.56307129 -0.00543457 5.23161133 0.00084961 5.92041016 0.00732422 C7.9619433 0.02338396 10.00149708 0.00747079 12.04296875 -0.01171875 C13.32816406 -0.00785156 14.61335938 -0.00398438 15.9375 0 C17.11763672 0.00338379 18.29777344 0.00676758 19.51367188 0.01025391 C22.46875 0.3984375 22.46875 0.3984375 24.35742188 1.73193359 C26.07122249 4.30188153 25.78791221 6.39831268 25.46875 9.3984375 C22.64183836 12.22534914 20.76933952 11.65679656 16.81640625 11.6640625 C16.16046982 11.66597595 15.50453339 11.6678894 14.82872009 11.66986084 C13.4409039 11.67122218 12.05307495 11.66752924 10.6652832 11.65917969 C8.54283939 11.64849584 6.42124525 11.6590671 4.29882812 11.671875 C2.95051897 11.67055306 1.60221034 11.66798995 0.25390625 11.6640625 C-0.97448975 11.66180664 -2.20288574 11.65955078 -3.46850586 11.65722656 C-6.53125 11.3984375 -6.53125 11.3984375 -9.53125 9.3984375 C-9.91805263 6.36848356 -10.15419859 4.3293147 -8.41601562 1.73193359 C-5.63127172 -0.23830879 -3.38288093 0.00969969 0 0 Z " fill="#86CBFC" transform="translate(387.53125,278.6015625)"/>
<path d="M0 0 C1.98 0 3.96 0 6 0 C6 8.58 6 17.16 6 26 C6.99 26 7.98 26 9 26 C9 17.42 9 8.84 9 0 C10.98 0 12.96 0 15 0 C15.05819473 4.06243957 15.09366215 8.12477146 15.125 12.1875 C15.14175781 13.33798828 15.15851563 14.48847656 15.17578125 15.67382812 C15.18222656 16.78564453 15.18867188 17.89746094 15.1953125 19.04296875 C15.20578613 20.06414795 15.21625977 21.08532715 15.22705078 22.13745117 C14.98999632 25.12612167 14.25617102 27.29423369 13 30 C11.59013562 30.3042656 10.17131189 30.56720908 8.75 30.8125 C7.96109375 30.96332031 7.1721875 31.11414063 6.359375 31.26953125 C4 31 4 31 1.87695312 28.86914062 C-0.32351325 25.50547246 -0.46900127 23.80181432 -0.390625 19.82421875 C-0.37773437 18.66728516 -0.36484375 17.51035156 -0.3515625 16.31835938 C-0.31804687 15.12017578 -0.28453125 13.92199219 -0.25 12.6875 C-0.23195312 11.46998047 -0.21390625 10.25246094 -0.1953125 8.99804688 C-0.14825131 5.99789578 -0.0825131 2.99935111 0 0 Z " fill="#75ACD1" transform="translate(202,225)"/>
<path d="M0 0 C1.98 0 3.96 0 6 0 C6 4.29 6 8.58 6 13 C7.32 13 8.64 13 10 13 C10 8.71 10 4.42 10 0 C11.65 0 13.3 0 15 0 C15 10.23 15 20.46 15 31 C13.35 31 11.7 31 10 31 C10 26.71 10 22.42 10 18 C8.68 18 7.36 18 6 18 C6 22.29 6 26.58 6 31 C4.02 31 2.04 31 0 31 C0 20.77 0 10.54 0 0 Z " fill="#6CAAD2" transform="translate(178,225)"/>
<path d="M0 0 C2.4375 1 2.4375 1 4 3 C4.33145271 5.75486103 4.18316636 8.20671304 4 11 C2.02 11 0.04 11 -2 11 C-2 9.68 -2 8.36 -2 7 C-2.66 7 -3.32 7 -4 7 C-3.81584568 9.94091587 -3.81584568 9.94091587 -3 13 C-1.13252737 14.39238047 -1.13252737 14.39238047 1 15 C1.66 15.33 2.32 15.66 3 16 C3.96165069 18.88495206 4.22728086 20.98593354 4.3125 24 C4.34988281 24.86625 4.38726562 25.7325 4.42578125 26.625 C4 29 4 29 2.203125 30.7890625 C-0.99500322 32.54689893 -3.41742295 32.39082659 -7 32 C-8.9375 31 -8.9375 31 -10 29 C-10.23595284 26.28117977 -10.13477523 23.74042978 -10 21 C-8.02 21 -6.04 21 -4 21 C-4 22.98 -4 24.96 -4 27 C-3.01 27 -2.02 27 -1 27 C-1.33 24.69 -1.66 22.38 -2 20 C-2.99 19.67 -3.98 19.34 -5 19 C-5 18.34 -5 17.68 -5 17 C-5.639375 16.731875 -6.27875 16.46375 -6.9375 16.1875 C-9 15 -9 15 -10 12 C-10.203125 9.84375 -10.203125 9.84375 -10.25 7.5 C-10.27578125 6.7265625 -10.3015625 5.953125 -10.328125 5.15625 C-10 3 -10 3 -8.69921875 1.2421875 C-5.86763893 -0.82779499 -3.37999 -0.35578842 0 0 Z " fill="#75AACC" transform="translate(229,181)"/>
<path d="M0 0 C21.78 0 43.56 0 66 0 C66 0.33 66 0.66 66 1 C70.455 1.99 70.455 1.99 75 3 C75 3.66 75 4.32 75 5 C50.25 5 25.5 5 0 5 C0 3.35 0 1.7 0 0 Z " fill="#2366A3" transform="translate(279,170)"/>
<path d="M0 0 C1.98 0 3.96 0 6 0 C7.23839599 6.65637843 7.09139136 13.2471936 7 20 C7.66 20 8.32 20 9 20 C9 13.4 9 6.8 9 0 C11.97 0 14.94 0 18 0 C18 1.65 18 3.3 18 5 C17.67 3.68 17.34 2.36 17 1 C14.69 1 12.38 1 10 1 C10 3.97 10 6.94 10 10 C10.66 10 11.32 10 12 10 C12 8.35 12 6.7 12 5 C12.33 5 12.66 5 13 5 C13.12852505 13.72542301 12.79645684 22.31008699 12 31 C9.03 31 6.06 31 3 31 C1.71237806 20.6740221 0.6257441 10.3906455 0 0 Z " fill="#81B5D4" transform="translate(161,182)"/>
<path d="M0 0 C0.33 0 0.66 0 1 0 C1.06058594 0.68707031 1.12117188 1.37414062 1.18359375 2.08203125 C1.26738281 2.98308594 1.35117187 3.88414062 1.4375 4.8125 C1.51871094 5.70582031 1.59992188 6.59914063 1.68359375 7.51953125 C1.93489767 10.12743559 1.93489767 10.12743559 3 13 C3.99 13 4.98 13 6 13 C5.67 13.99 5.34 14.98 5 16 C4.34 15.67 3.68 15.34 3 15 C3.495 16.485 3.495 16.485 4 18 C-6.06618869 18.09543499 -16.13261721 18.17928954 -26.1875 17.625 C-27.45980469 17.55539062 -28.73210937 17.48578125 -30.04296875 17.4140625 C-33 17 -33 17 -35 15 C-35.66 14.01 -36.32 13.02 -37 12 C-35.70582153 11.970271 -35.70582153 11.970271 -34.38549805 11.93994141 C-31.18163044 11.86180356 -27.97814106 11.77510918 -24.7746582 11.68261719 C-23.38868093 11.6443565 -22.00260535 11.60949844 -20.61645508 11.578125 C-18.6229836 11.53241301 -16.62983086 11.47341075 -14.63671875 11.4140625 C-13.43748779 11.3826416 -12.23825684 11.3512207 -11.00268555 11.31884766 C-7.82117294 11.21570506 -7.82117294 11.21570506 -5 9 C-4.42251197 7.03638136 -4.42251197 7.03638136 -4.3125 4.875 C-4.209375 3.59625 -4.10625 2.3175 -4 1 C-3.01 1.33 -2.02 1.66 -1 2 C-0.67 1.34 -0.34 0.68 0 0 Z " fill="#2168A5" transform="translate(417,279)"/>
<path d="M0 0 C30.03 0 60.06 0 91 0 C91 0.33 91 0.66 91 1 C61.96 1.33 32.92 1.66 3 2 C3 3.65 3 5.3 3 7 C47.55 7 92.1 7 138 7 C138 7.33 138 7.66 138 8 C92.46 8 46.92 8 0 8 C0 5.36 0 2.72 0 0 Z " fill="#2F6690" transform="translate(278,310)"/>
<path d="M0 0 C24.09 0 48.18 0 73 0 C73 14.19 73 28.38 73 43 C48.91 43 24.82 43 0 43 C0 42.67 0 42.34 0 42 C35.145 41.505 35.145 41.505 71 41 C71 27.8 71 14.6 71 1 C35.855 1.495 35.855 1.495 0 2 C0 1.34 0 0.68 0 0 Z " fill="#CDE9F7" transform="translate(278,126)"/>
<path d="M0 0 C0.33 0 0.66 0 1 0 C1 1.98 1 3.96 1 6 C1.66 6 2.32 6 3 6 C3 6.66 3 7.32 3 8 C3.66 8 4.32 8 5 8 C5 5.69 5 3.38 5 1 C8.3 0.67 11.6 0.34 15 0 C15.12375 1.134375 15.2475 2.26875 15.375 3.4375 C15.58125 4.613125 15.7875 5.78875 16 7 C16.66 7.33 17.32 7.66 18 8 C17.01 9.485 17.01 9.485 16 11 C16.99 11 17.98 11 19 11 C19 10.34 19 9.68 19 9 C19.66 9.33 20.32 9.66 21 10 C19.625 11.5 19.625 11.5 18 13 C17.34 13 16.68 13 16 13 C16 13.66 16 14.32 16 15 C6.85365854 15.30487805 6.85365854 15.30487805 4 13 C2.75 10.375 2.75 10.375 2 8 C1.34 8 0.68 8 0 8 C0 5.36 0 2.72 0 0 Z " fill="#326FA6" transform="translate(284,144)"/>
<path d="M0 0 C28.71 0 57.42 0 87 0 C87 0.99 87 1.98 87 3 C58.29 3 29.58 3 0 3 C0 2.01 0 1.02 0 0 Z " fill="#2A6AB4" transform="translate(281,312)"/>
<path d="M0 0 C0.66 0 1.32 0 2 0 C2 4.62 2 9.24 2 14 C2.66 14 3.32 14 4 14 C4 15.65 4 17.3 4 19 C4.66 19 5.32 19 6 19 C6.33 20.32 6.66 21.64 7 23 C6.34 23 5.68 23 5 23 C5 22.34 5 21.68 5 21 C4.34 21 3.68 21 3 21 C3 20.01 3 19.02 3 18 C1.68 18 0.36 18 -1 18 C-1 20.31 -1 22.62 -1 25 C-2.98 25 -4.96 25 -7 25 C-6.49656013 17.97326485 -5.95812032 10.98059091 -5 4 C-3.68 4 -2.36 4 -1 4 C-0.67 2.68 -0.34 1.36 0 0 Z " fill="#96C9E8" transform="translate(202,188)"/>
<path d="M0 0 C0.99 0.33 1.98 0.66 3 1 C3 1.66 3 2.32 3 3 C5.64 2.67 8.28 2.34 11 2 C11.10331031 9.42686315 10.99862699 16.63512596 10 24 C9.67 24 9.34 24 9 24 C8.67 21.36 8.34 18.72 8 16 C7.34 16 6.68 16 6 16 C5.67 15.01 5.34 14.02 5 13 C5.66 13 6.32 13 7 13 C7.33 10.03 7.66 7.06 8 4 C7.01 4.33 6.02 4.66 5 5 C4.80210976 8.22861733 4.61853655 11.45789727 4.4375 14.6875 C4.38142578 15.59951172 4.32535156 16.51152344 4.26757812 17.45117188 C4.21923828 18.33740234 4.17089844 19.22363281 4.12109375 20.13671875 C4.0739624 20.94842529 4.02683105 21.76013184 3.97827148 22.59643555 C4.00161772 25.1789485 4.4195208 27.48849909 5 30 C3.35 30 1.7 30 0 30 C0 20.1 0 10.2 0 0 Z " fill="#6EABD1" transform="translate(227,226)"/>
<path d="M0 0 C0.33 0 0.66 0 1 0 C1.04898438 0.61488281 1.09796875 1.22976563 1.1484375 1.86328125 C1.26058594 3.07564453 1.26058594 3.07564453 1.375 4.3125 C1.47941406 5.51326172 1.47941406 5.51326172 1.5859375 6.73828125 C1.89564426 9.27224441 1.89564426 9.27224441 4 12 C4 13.32 4 14.64 4 16 C3.34 16 2.68 16 2 16 C1.67 20.62 1.34 25.24 1 30 C-30.02 30 -61.04 30 -93 30 C-93 30.66 -93 31.32 -93 32 C-93.66 31.67 -94.32 31.34 -95 31 C-94.01 29.515 -94.01 29.515 -93 28 C-90.00686017 27.74379568 -87.22670988 27.68138781 -84.23583984 27.7512207 C-83.32846573 27.76053619 -82.42109161 27.76985168 -81.48622131 27.77944946 C-78.4774199 27.8139126 -75.46940909 27.86979073 -72.4609375 27.92578125 C-70.37873025 27.95380395 -68.29650469 27.98049545 -66.21426392 28.00590515 C-60.72638868 28.07646665 -55.23894901 28.16516835 -49.75140381 28.25756836 C-44.15473195 28.34862215 -38.55783806 28.42263101 -32.9609375 28.49804688 C-21.97367247 28.64862224 -10.98679212 28.8183501 0 29 C-0.01160156 28.11957031 -0.02320313 27.23914063 -0.03515625 26.33203125 C-0.04417969 25.17058594 -0.05320312 24.00914062 -0.0625 22.8125 C-0.07410156 21.66394531 -0.08570313 20.51539063 -0.09765625 19.33203125 C-0.01192832 16.40699414 0.32150977 13.83683709 1 11 C0.34 11 -0.32 11 -1 11 C-1.125 3.375 -1.125 3.375 0 0 Z " fill="#E6FCFE" transform="translate(370,280)"/>
<path d="M0 0 C1.66611905 -0.042721 3.33382885 -0.04063832 5 0 C5.33 0.33 5.66 0.66 6 1 C7.39097823 1.10750771 8.78730842 1.14679668 10.18238831 1.15821838 C11.08407745 1.1680072 11.9857666 1.17779602 12.91477966 1.18788147 C13.91171341 1.19363693 14.90864716 1.1993924 15.93579102 1.20532227 C16.97956909 1.21522186 18.02334717 1.22512146 19.09875488 1.23532104 C22.56711518 1.26704254 26.03548921 1.29173541 29.50390625 1.31640625 C31.90144721 1.33696659 34.29898448 1.3579628 36.69651794 1.37937927 C43.02091484 1.43469498 49.34534495 1.48406223 55.6697998 1.53222656 C62.1177874 1.58237241 68.56572648 1.63809449 75.01367188 1.69335938 C87.67573957 1.80105706 100.33784863 1.90266526 113 2 C113 2.33 113 2.66 113 3 C76.7 3 40.4 3 3 3 C3 5.64 3 8.28 3 11 C2.01 11 1.02 11 0 11 C-0.33 11.66 -0.66 12.32 -1 13 C-1 12.34 -1 11.68 -1 11 C-1.66 10.67 -2.32 10.34 -3 10 C-2.360625 9.896875 -1.72125 9.79375 -1.0625 9.6875 C-0.0415625 9.3471875 -0.0415625 9.3471875 1 9 C1.33 8.01 1.66 7.02 2 6 C1.34 5.67 0.68 5.34 0 5 C0 3.35 0 1.7 0 0 Z " fill="#DBF3FE" transform="translate(275,115)"/>
<path d="M0 0 C1.875 0.625 1.875 0.625 4 2 C5.25 5.125 5.25 5.125 6 8 C7.65 8.33 9.3 8.66 11 9 C10.67 9.99 10.34 10.98 10 12 C10.33 12 10.66 12 11 12 C13 12 15 12 17 12 C16.01 12.495 16.01 12.495 15 13 C13.86649466 15.01669827 13.86649466 15.01669827 13 17 C4.93103448 17.46551724 4.93103448 17.46551724 1.5 15.75 C-1.88453188 11.80137947 -1.15971501 6.95116527 -1 2 C-0.67 1.34 -0.34 0.68 0 0 Z " fill="#2B6AA3" transform="translate(319,142)"/>
<path d="M0 0 C-0.33 0.66 -0.66 1.32 -1 2 C-1.66 2 -2.32 2 -3 2 C-3 2.99 -3 3.98 -3 5 C0.13349732 6.04449911 0.98968256 5.93423645 4 5 C4.99 6.485 4.99 6.485 6 8 C5.34 8 4.68 8 4 8 C3.67 10.31 3.34 12.62 3 15 C0.625 15.125 0.625 15.125 -2 15 C-4.35953094 12.64046906 -4.49141413 11.22104383 -5 8 C-5.99 8 -6.98 8 -8 8 C-8 11.63 -8 15.26 -8 19 C-11.25210427 15.74789573 -11.43098482 15.41198626 -11.4375 11.125 C-11.33611863 7.46993493 -11.08832915 6.14427094 -9.125 2.9375 C-5.94713011 0.04003039 -4.21176731 -0.11083598 0 0 Z " fill="#32699D" transform="translate(327,136)"/>
<path d="M0 0 C0.33 0 0.66 0 1 0 C1 14.19 1 28.38 1 43 C8.92 43 16.84 43 25 43 C24.67 43.66 24.34 44.32 24 45 C15.75 45 7.5 45 -1 45 C-1.02290513 38.75198914 -1.04283339 32.50412285 -1.05493164 26.25610352 C-1.05997298 24.12881986 -1.06680591 22.00153969 -1.07543945 19.87426758 C-1.08751379 16.82372174 -1.09323014 13.77322155 -1.09765625 10.72265625 C-1.10281754 9.76537125 -1.10797882 8.80808624 -1.11329651 7.8217926 C-1.11337204 6.94095505 -1.11344757 6.06011749 -1.11352539 5.15258789 C-1.115746 4.37315323 -1.11796661 3.59371857 -1.12025452 2.79066467 C-1 1 -1 1 0 0 Z " fill="#2F6695" transform="translate(357,126)"/>
<path d="M0 0 C1.32 0 2.64 0 4 0 C4.70902441 10.42811284 5.35081164 20.58835953 4 31 C2.68 31 1.36 31 0 31 C0 20.77 0 10.54 0 0 Z " fill="#68ACDB" transform="translate(178,225)"/>
<path d="M0 0 C0.99 0 1.98 0 3 0 C3 3.3 3 6.6 3 10 C2.34 10 1.68 10 1 10 C1 10.66 1 11.32 1 12 C1.66 12 2.32 12 3 12 C3.66 14.31 4.32 16.62 5 19 C5.66 19 6.32 19 7 19 C6.79375 19.61875 6.5875 20.2375 6.375 20.875 C6.25125 21.57625 6.1275 22.2775 6 23 C6.66 23.66 7.32 24.32 8 25 C5.29120665 26.35439668 2.99066732 26.06501451 0 26 C-2.72350204 21.0330001 -2.04780923 16.20500432 -1.6875 10.75 C-1.63916016 9.82703125 -1.59082031 8.9040625 -1.54101562 7.953125 C-1.14557719 1.14557719 -1.14557719 1.14557719 0 0 Z " fill="#83B0CE" transform="translate(232,230)"/>
<path d="M0 0 C2.8822106 2.8822106 2.9689061 6.24869013 3.625 10.125 C3.7590625 10.87910156 3.893125 11.63320312 4.03125 12.41015625 C4.36123229 14.27219918 4.68154073 16.13595175 5 18 C2.23723823 17.47731534 -0.3260876 16.89130413 -3 16 C-4.78967404 15.90580663 -6.58285563 15.87009002 -8.375 15.875 C-9.31085938 15.87242187 -10.24671875 15.86984375 -11.2109375 15.8671875 C-14.01265655 15.91697733 -14.01265655 15.91697733 -16.7265625 16.6328125 C-17.47679687 16.75398438 -18.22703125 16.87515625 -19 17 C-19.66 16.34 -20.32 15.68 -21 15 C-19.741875 14.71125 -18.48375 14.4225 -17.1875 14.125 C-14.1460601 13.42696461 -12.69330122 12.79553415 -10 11 C-7.67891331 10.29187186 -5.34622853 9.61975848 -3 9 C-2.87625 8.071875 -2.7525 7.14375 -2.625 6.1875 C-2 3 -2 3 0 0 Z " fill="#81C4F6" transform="translate(358,224)"/>
<path d="M0 0 C1.32 0.33 2.64 0.66 4 1 C4 1.66 4 2.32 4 3 C5.3303125 3.4021875 5.3303125 3.4021875 6.6875 3.8125 C9.79007439 4.92474365 12.20750624 6.2815423 15 8 C16.65369357 8.69822617 18.31727014 9.37498605 20 10 C19.67 10.99 19.34 11.98 19 13 C18.01 13 17.02 13 16 13 C16 13.66 16 14.32 16 15 C15.01 14.67 14.02 14.34 13 14 C12.30003906 13.77441406 11.60007812 13.54882812 10.87890625 13.31640625 C10.11449219 13.06761719 9.35007812 12.81882812 8.5625 12.5625 C7.80066406 12.31628906 7.03882813 12.07007813 6.25390625 11.81640625 C4 11 4 11 0 9 C0 6.03 0 3.06 0 0 Z " fill="#2663A0" transform="translate(278,283)"/>
<path d="M0 0 C1.98 0 3.96 0 6 0 C6.79471033 4.94771272 7.18946476 9.72557468 7.25 14.75 C7.27578125 16.04421875 7.3015625 17.3384375 7.328125 18.671875 C7 22 7 22 5.484375 23.953125 C4.99453125 24.29859375 4.5046875 24.6440625 4 25 C3.67 23.68 3.34 22.36 3 21 C3.66 21 4.32 21 5 21 C4.52949219 20.67128906 4.05898437 20.34257812 3.57421875 20.00390625 C1.20138831 16.98340497 1.16959212 13.64274021 0.8125 9.9375 C0.73064453 9.20466797 0.64878906 8.47183594 0.56445312 7.71679688 C0 2.55133929 0 2.55133929 0 0 Z " fill="#7CAAC7" transform="translate(161,182)"/>
<path d="M0 0 C1.32 0 2.64 0 4 0 C3.67 11.55 3.34 23.1 3 35 C2.67 35 2.34 35 2 35 C1.67 37.64 1.34 40.28 1 43 C0.67 43 0.34 43 0 43 C0 28.81 0 14.62 0 0 Z " fill="#3067A1" transform="translate(382,126)"/>
<path d="M0 0 C2.06348821 0.83829209 4.03678574 1.76077807 6 2.8125 C6 3.1425 6 3.4725 6 3.8125 C4.02 3.8125 2.04 3.8125 0 3.8125 C0 12.3925 0 20.9725 0 29.8125 C-0.99 29.8125 -1.98 29.8125 -3 29.8125 C-3 21.2325 -3 12.6525 -3 3.8125 C-3.99 3.4825 -4.98 3.1525 -6 2.8125 C-2.57918552 -0.24179864 -2.57918552 -0.24179864 0 0 Z " fill="#DCF4FC" transform="translate(211,221.1875)"/>
<path d="M0 0 C0.66 0.33 1.32 0.66 2 1 C2.66 1 3.32 1 4 1 C4.99 1.33 5.98 1.66 7 2 C2.87296287 4.96941178 -0.01115162 5.35730445 -5.05078125 5.29296875 C-5.70958786 5.28872391 -6.36839447 5.28447906 -7.04716492 5.28010559 C-9.13603885 5.26341196 -11.22392139 5.22578058 -13.3125 5.1875 C-14.73501203 5.17244097 -16.1575393 5.15875469 -17.58007812 5.14648438 C-21.05370351 5.11354003 -24.52675487 5.06182408 -28 5 C-28 4.01 -28 3.02 -28 2 C-26.83428467 1.96241577 -26.83428467 1.96241577 -25.64501953 1.92407227 C-22.13816931 1.80833204 -18.63160255 1.68550648 -15.125 1.5625 C-13.29001953 1.50352539 -13.29001953 1.50352539 -11.41796875 1.44335938 C-9.66806641 1.38051758 -9.66806641 1.38051758 -7.8828125 1.31640625 C-6.80402832 1.27974854 -5.72524414 1.24309082 -4.61376953 1.20532227 C-2.01930464 1.16623357 -2.01930464 1.16623357 0 0 Z " fill="#1F6BB1" transform="translate(412,291)"/>
<path d="M0 0 C0.99 0 1.98 0 3 0 C3.04898438 0.60328125 3.09796875 1.2065625 3.1484375 1.828125 C3.22320312 2.62734375 3.29796875 3.4265625 3.375 4.25 C3.44460937 5.03890625 3.51421875 5.8278125 3.5859375 6.640625 C4.01507113 9.085877 4.78600638 10.84836903 6 13 C5.67 13.33 5.34 13.66 5 14 C4.76572222 16.01594582 4.58663876 18.038474 4.4375 20.0625 C4.35371094 21.16722656 4.26992187 22.27195313 4.18359375 23.41015625 C4.12300781 24.26480469 4.06242188 25.11945313 4 26 C2.68 25.67 1.36 25.34 0 25 C0 16.75 0 8.5 0 0 Z " fill="#6EA8CE" transform="translate(243,186)"/>
<path d="M0 0 C0.97710937 0.01675781 1.95421875 0.03351563 2.9609375 0.05078125 C5.3125 0.1875 5.3125 0.1875 9 1 C11.23046875 3.55078125 11.23046875 3.55078125 13 6 C12.29359375 5.7834375 11.5871875 5.566875 10.859375 5.34375 C-2.3562805 1.75759223 -16.93818989 0.81664087 -29.78515625 6.125 C-32 7 -32 7 -35 7 C-34.67 6.01 -34.34 5.02 -34 4 C-29.545 3.505 -29.545 3.505 -25 3 C-25 2.34 -25 1.68 -25 1 C-16.63012696 -0.18628122 -8.43670545 -0.17972931 0 0 Z " fill="#EBFCFE" transform="translate(320,183)"/>
<path d="M0 0 C0.33 0 0.66 0 1 0 C1 1.98 1 3.96 1 6 C1.66 6 2.32 6 3 6 C3 4.35 3 2.7 3 1 C3.268125 1.61875 3.53625 2.2375 3.8125 2.875 C4.95556848 5.2995233 4.95556848 5.2995233 8 7 C11.0042707 7.36927046 11.0042707 7.36927046 14.41796875 7.4140625 C15.67158203 7.45273437 16.92519531 7.49140625 18.21679688 7.53125 C19.52712891 7.5621875 20.83746094 7.593125 22.1875 7.625 C23.5228116 7.66319338 24.85809892 7.70224591 26.19335938 7.7421875 C29.46209888 7.83659153 32.73083064 7.92217017 36 8 C36 8.33 36 8.66 36 9 C22.635 9.495 22.635 9.495 9 10 C9.33 10.66 9.66 11.32 10 12 C7.63707344 14.52588702 6.33537489 15.88820837 3 17 C3.020625 16.071875 3.04125 15.14375 3.0625 14.1875 C3.15769604 10.97713989 3.15769604 10.97713989 2 8 C1.34 8 0.68 8 0 8 C0 5.36 0 2.72 0 0 Z " fill="#3477BA" transform="translate(373,282)"/>
<path d="M0 0 C0.99 0 1.98 0 3 0 C3.79790205 4.12115063 4.07327696 7.86491877 3.87890625 12.0546875 C3.83056641 13.16328125 3.78222656 14.271875 3.73242188 15.4140625 C3.67634766 16.55617187 3.62027344 17.69828125 3.5625 18.875 C3.51029297 20.0403125 3.45808594 21.205625 3.40429688 22.40625 C3.27514203 25.27113925 3.14019818 28.13563347 3 31 C2.01 31 1.02 31 0 31 C0 20.77 0 10.54 0 0 Z " fill="#D9F0F6" transform="translate(193,225)"/>
<path d="M0 0 C1.98 0.495 1.98 0.495 4 1 C3.67 2.32 3.34 3.64 3 5 C3.66 5 4.32 5 5 5 C5 4.34 5 3.68 5 3 C6.32 3.66 7.64 4.32 9 5 C9 7.97 9 10.94 9 14 C8.67 14 8.34 14 8 14 C8 11.36 8 8.72 8 6 C6.35 6 4.7 6 3 6 C2.67 14.58 2.34 23.16 2 32 C1.67 32 1.34 32 1 32 C0.63377105 27.79262561 0.28415223 23.58402896 -0.0625 19.375 C-0.16626953 18.18519531 -0.27003906 16.99539062 -0.37695312 15.76953125 C-0.47041016 14.61582031 -0.56386719 13.46210938 -0.66015625 12.2734375 C-0.74918213 11.21560059 -0.83820801 10.15776367 -0.92993164 9.06787109 C-1.00207844 5.90899772 -0.61805241 3.09228846 0 0 Z " fill="#D6ECF7" transform="translate(179,176)"/>
<path d="M0 0 C1.98 0 3.96 0 6 0 C6 4.29 6 8.58 6 13 C6.99 13.33 7.98 13.66 9 14 C7.35 13.67 5.7 13.34 4 13 C4 10.03 4 7.06 4 4 C3.01 4 2.02 4 1 4 C1.33 12.25 1.66 20.5 2 29 C2.99 29.33 3.98 29.66 5 30 C5 26.04 5 22.08 5 18 C5.33 18 5.66 18 6 18 C6 22.29 6 26.58 6 31 C4.02 31 2.04 31 0 31 C0 20.77 0 10.54 0 0 Z " fill="#83B0CA" transform="translate(242,182)"/>
<path d="M0 0 C0.66 0.66 1.32 1.32 2 2 C1.75 5.5625 1.75 5.5625 1 9 C-2.41041167 10.70520583 -6.30533539 10.18493888 -10.05859375 10.203125 C-11.40873314 10.21167511 -11.40873314 10.21167511 -12.78614807 10.22039795 C-14.69181134 10.22985201 -16.597491 10.23638354 -18.50317383 10.24023438 C-21.4223265 10.2499495 -24.34077801 10.28097267 -27.25976562 10.3125 C-29.10937081 10.31902902 -30.95898104 10.32427989 -32.80859375 10.328125 C-33.68366074 10.3404718 -34.55872772 10.3528186 -35.46031189 10.36553955 C-36.27448074 10.36253845 -37.0886496 10.35953735 -37.92749023 10.35644531 C-39.00098976 10.36191376 -39.00098976 10.36191376 -40.09617615 10.36749268 C-42.58366139 9.88733659 -43.47788063 8.99249455 -45 7 C-45.1875 4.3125 -45.1875 4.3125 -45 2 C-43.515 2.99 -43.515 2.99 -42 4 C-42 4.66 -42 5.32 -42 6 C-41.01 6.33 -40.02 6.66 -39 7 C-39 7.33 -39 7.66 -39 8 C-34.62178091 8.0740719 -30.24389218 8.12856375 -25.86523438 8.16479492 C-24.37526091 8.179896 -22.88533199 8.20037858 -21.39550781 8.22631836 C-19.2557477 8.26264584 -17.11657434 8.27971221 -14.9765625 8.29296875 C-13.68830566 8.3086792 -12.40004883 8.32438965 -11.07275391 8.34057617 C-9.55174072 8.17199097 -9.55174072 8.17199097 -8 8 C-7.34 7.01 -6.68 6.02 -6 5 C-5.505 6.485 -5.505 6.485 -5 8 C-2.95163118 7.43637698 -2.95163118 7.43637698 -1 6 C-0.18415432 2.94091587 -0.18415432 2.94091587 0 0 Z " fill="#E5FAFD" transform="translate(423,300)"/>
<path d="M0 0 C0.33 0 0.66 0 1 0 C1 2.64 1 5.28 1 8 C3.86724686 7.42655063 4.8614515 7.1385485 7 5 C7.31811891 9.84408347 6.4692416 12.82933929 4.25 17.125 C3.73953125 18.13820313 3.2290625 19.15140625 2.703125 20.1953125 C1.05272697 22.91316981 -0.65614209 24.87014651 -3 27 C-2.67 25.35 -2.34 23.7 -2 22 C-1.34 22 -0.68 22 0 22 C0.144375 21.071875 0.28875 20.14375 0.4375 19.1875 C1 16 1 16 2 13 C1.34 13 0.68 13 0 13 C-0.66 14.32 -1.32 15.64 -2 17 C-3.44715727 13.12813552 -2.5441918 10.1767672 -1.5625 6.25 C-1.27503906 5.07953125 -0.98757813 3.9090625 -0.69140625 2.703125 C-0.46324219 1.81109375 -0.23507812 0.9190625 0 0 Z " fill="#3C719B" transform="translate(361,251)"/>
<path d="M0 0 C7.81043439 0.952492 13.26340464 3.82307248 19 9 C17.625 10.5 17.625 10.5 16 12 C15.34 12 14.68 12 14 12 C14 11.34 14 10.68 14 10 C13.34 10 12.68 10 12 10 C12 9.01 12 8.02 12 7 C10.88625 7.2784375 10.88625 7.2784375 9.75 7.5625 C7.05009037 7.99203108 5.55368923 7.85122974 3 7 C2.87625 6.030625 2.7525 5.06125 2.625 4.0625 C2.41875 3.051875 2.2125 2.04125 2 1 C1.34 0.67 0.68 0.34 0 0 Z " fill="#2870AF" transform="translate(278,241)"/>
<path d="M0 0 C1.65 0 3.3 0 5 0 C5 7.92 5 15.84 5 24 C4.67 24 4.34 24 4 24 C4 22.02 4 20.04 4 18 C3.34 18 2.68 18 2 18 C2 17.34 2 16.68 2 16 C1.34 15.67 0.68 15.34 0 15 C0 10.05 0 5.1 0 0 Z " fill="#74A8C5" transform="translate(251,182)"/>
<path d="M0 0 C4.86831281 0.45286631 7.48559226 1.58321469 11 5 C13.52470277 8.48649431 13.36226929 11.79767625 13 16 C11.42275698 19.98066095 10.58999089 21.60667274 7 24 C7 22.68 7 21.36 7 20 C7.66 19.67 8.32 19.34 9 19 C8.835 18.195625 8.67 17.39125 8.5 16.5625 C7.90752652 12.34112648 7.91493291 8.25335455 8 4 C6.35 4 4.7 4 3 4 C3 3.01 3 2.02 3 1 C2.01 0.67 1.02 0.34 0 0 Z " fill="#3B6EA0" transform="translate(420,291)"/>
<path d="M0 0 C0.65355469 0.15339844 1.30710937 0.30679688 1.98046875 0.46484375 C5.75492159 1.13379594 9.48905996 1.35407297 13.3125 1.5625 C14.05306641 1.60568359 14.79363281 1.64886719 15.55664062 1.69335938 C17.37091464 1.79870432 19.1854355 1.89978316 21 2 C17.75225052 6.82959452 17.75225052 6.82959452 14.37890625 7.59375 C4.49804808 7.26484487 4.49804808 7.26484487 1 4 C0.1875 1.8125 0.1875 1.8125 0 0 Z " fill="#1F69AD" transform="translate(303,255)"/>
<path d="M0 0 C0 0.66 0 1.32 0 2 C-0.99 2 -1.98 2 -3 2 C-3 2.99 -3 3.98 -3 5 C-6.26613695 6.91302307 -8.99445248 7.35674661 -12.75 7.625 C-14.22726562 7.73714844 -14.22726562 7.73714844 -15.734375 7.8515625 C-16.48203125 7.90054688 -17.2296875 7.94953125 -18 8 C-16.625 6 -16.625 6 -15 4 C-14.34 4 -13.68 4 -13 4 C-13 3.34 -13 2.68 -13 2 C-4.738041 -1.62870159 -4.738041 -1.62870159 0 0 Z " fill="#246BAF" transform="translate(349,240)"/>
<path d="M0 0 C0.33 0 0.66 0 1 0 C1.66 2.97 2.32 5.94 3 9 C4.32 9.33 5.64 9.66 7 10 C6.67 10.99 6.34 11.98 6 13 C6 12.34 6 11.68 6 11 C5.34 11 4.68 11 4 11 C4.33 12.32 4.66 13.64 5 15 C4.34 15 3.68 15 3 15 C2.67 13.68 2.34 12.36 2 11 C1.34 11 0.68 11 0 11 C0.33 11.66 0.66 12.32 1 13 C1.06996014 14.70702735 1.08440154 16.41668003 1.0625 18.125 C1.05347656 19.03507812 1.04445312 19.94515625 1.03515625 20.8828125 C1.02355469 21.58148438 1.01195312 22.28015625 1 23 C0.67 23 0.34 23 0 23 C-0.02578125 22.22914063 -0.0515625 21.45828125 -0.078125 20.6640625 C-0.13484375 19.66117188 -0.1915625 18.65828125 -0.25 17.625 C-0.29640625 16.62726563 -0.3428125 15.62953125 -0.390625 14.6015625 C-0.71513158 11.86800206 -0.71513158 11.86800206 -2.9375 10.734375 C-3.618125 10.49203125 -4.29875 10.2496875 -5 10 C-6.75 8.625 -6.75 8.625 -8 7 C-8 5.68 -8 4.36 -8 3 C-7.34 3 -6.68 3 -6 3 C-6 4.32 -6 5.64 -6 7 C-4.02 7 -2.04 7 0 7 C0 4.69 0 2.38 0 0 Z M2 6 C4 7 4 7 4 7 Z " fill="#D7EBF4" transform="translate(233,185)"/>
<path d="M0 0 C0.99 0.33 1.98 0.66 3 1 C2.67 12.55 2.34 24.1 2 36 C2.66 36.33 3.32 36.66 4 37 C2.68 37 1.36 37 0 37 C0 24.79 0 12.58 0 0 Z " fill="#93CAE9" transform="translate(278,204)"/>
<path d="M0 0 C0.33 0 0.66 0 1 0 C2.07551215 10.4478323 2.07551215 10.4478323 2 15.375 C2 18.45673248 2.25660653 21.02642614 3 24 C1.35 24 -0.3 24 -2 24 C-2.05410136 20.93726169 -2.09372225 17.87548548 -2.125 14.8125 C-2.14175781 13.94818359 -2.15851563 13.08386719 -2.17578125 12.19335938 C-2.21038233 7.67791897 -2.15567916 4.09918517 0 0 Z " fill="#75B0E0" transform="translate(229,232)"/>
<path d="M0 0 C2 1 2 1 2.61450195 2.75537109 C3.34613982 7.01545883 3.18460256 11.31361381 3.1875 15.625 C3.19974609 16.59179688 3.21199219 17.55859375 3.22460938 18.5546875 C3.22654297 19.47765625 3.22847656 20.400625 3.23046875 21.3515625 C3.23457764 22.19541504 3.23868652 23.03926758 3.24291992 23.90869141 C3 26 3 26 1 28 C0 27 0 27 -0.11352539 24.40795898 C-0.10828857 23.28204346 -0.10305176 22.15612793 -0.09765625 20.99609375 C-0.09443359 19.78115234 -0.09121094 18.56621094 -0.08789062 17.31445312 C-0.07951172 16.03505859 -0.07113281 14.75566406 -0.0625 13.4375 C-0.05798828 12.15423828 -0.05347656 10.87097656 -0.04882812 9.54882812 C-0.03699545 6.36583978 -0.02051068 3.18294238 0 0 Z " fill="#E3F5FD" transform="translate(257,182)"/>
<path d="M0 0 C0.66 0 1.32 0 2 0 C2 4.29 2 8.58 2 13 C3.32 13 4.64 13 6 13 C5.67 14.65 5.34 16.3 5 18 C4.01 18 3.02 18 2 18 C2 22.29 2 26.58 2 31 C1.34 31 0.68 31 0 31 C0 20.77 0 10.54 0 0 Z " fill="#78A9C3" transform="translate(182,225)"/>
<path d="M0 0 C0.74958984 0.00451172 1.49917969 0.00902344 2.27148438 0.01367188 C4.11852383 0.02543646 5.96552213 0.04337135 7.8125 0.0625 C4.77590752 1.83900989 2.85977629 2.21531579 -0.625 1.9375 C-3.76405926 1.90135952 -5.1840561 2.06096124 -8.125 3.375 C-11.2807571 7.48704713 -11.60289452 12.00173617 -12.1875 17.0625 C-11.5275 17.0625 -10.8675 17.0625 -10.1875 17.0625 C-9.5275 18.3825 -8.8675 19.7025 -8.1875 21.0625 C-9.5075 21.0625 -10.8275 21.0625 -12.1875 21.0625 C-12.1875 20.0725 -12.1875 19.0825 -12.1875 18.0625 C-12.8475 18.0625 -13.5075 18.0625 -14.1875 18.0625 C-14.1875 14.7625 -14.1875 11.4625 -14.1875 8.0625 C-13.5275 8.0625 -12.8675 8.0625 -12.1875 8.0625 C-12.39375 7.464375 -12.6 6.86625 -12.8125 6.25 C-13.1875 4.0625 -13.1875 4.0625 -11.1875 1.0625 C-7.42449626 -0.19183458 -3.91539091 -0.04445422 0 0 Z " fill="#DBF0F9" transform="translate(296.1875,134.9375)"/>
<path d="M0 0 C-5.33946618 3.55964412 -9.64016143 4.32040412 -16 4.25 C-17.04800781 4.26160156 -17.04800781 4.26160156 -18.1171875 4.2734375 C-22.18628563 4.25808241 -25.34061531 3.8011034 -29 2 C-29 1.67 -29 1.34 -29 1 C-25.66682397 0.83008756 -22.33343885 0.66466921 -19 0.5 C-18.06542969 0.45230469 -17.13085938 0.40460938 -16.16796875 0.35546875 C-10.77043673 0.0912539 -5.40391896 -0.05098037 0 0 Z " fill="#356C9F" transform="translate(328,293)"/>
<path d="M0 0 C1.32 0 2.64 0 4 0 C4.05391993 1.79133978 4.09275571 3.58313899 4.125 5.375 C4.14820313 6.37273437 4.17140625 7.37046875 4.1953125 8.3984375 C4 11 4 11 2 13 C1.63168919 14.93257855 1.63168919 14.93257855 1.5859375 17.1328125 C1.54726562 17.93847656 1.50859375 18.74414062 1.46875 19.57421875 C1.4378125 20.41597656 1.406875 21.25773437 1.375 22.125 C1.33632812 22.97449219 1.29765625 23.82398438 1.2578125 24.69921875 C1.16343506 26.79911684 1.08062414 28.89952891 1 31 C0.67 31 0.34 31 0 31 C0 20.77 0 10.54 0 0 Z " fill="#8BBEDF" transform="translate(178,225)"/>
<path d="M0 0 C0.66 0 1.32 0 2 0 C2 3.3 2 6.6 2 10 C2.66 9.67 3.32 9.34 4 9 C4 11.64 4 14.28 4 17 C2.02 17 0.04 17 -2 17 C-1.85848172 14.9163691 -1.71162064 12.83310062 -1.5625 10.75 C-1.48128906 9.58984375 -1.40007812 8.4296875 -1.31640625 7.234375 C-1.06752213 4.69022624 -0.71885058 2.44046752 0 0 Z " fill="#87B4D0" transform="translate(197,196)"/>
<path d="M0 0 C1.98 0 3.96 0 6 0 C6 7.92 6 15.84 6 24 C5.67 24 5.34 24 5 24 C4.67 16.74 4.34 9.48 4 2 C3.01 2 2.02 2 1 2 C1 9.92 1 17.84 1 26 C0.67 26 0.34 26 0 26 C0 17.42 0 8.84 0 0 Z " fill="#86B3CD" transform="translate(202,225)"/>
<path d="M0 0 C0.33 0 0.66 0 1 0 C1.43200679 4.75207471 -0.01510917 7.78210698 -2 12 C-2.66 12 -3.32 12 -4 12 C-4.33 13.65 -4.66 15.3 -5 17 C-6.32 17 -7.64 17 -9 17 C-8.67 14.69 -8.34 12.38 -8 10 C-7.34 10 -6.68 10 -6 10 C-6 8.35 -6 6.7 -6 5 C-5.01 5 -4.02 5 -3 5 C-2.67 4.34 -2.34 3.68 -2 3 C-1.34 3 -0.68 3 0 3 C0 2.01 0 1.02 0 0 Z " fill="#2364AA" transform="translate(363,261)"/>
<path d="M0 0 C1.98 0.66 3.96 1.32 6 2 C5.01 2.33 4.02 2.66 3 3 C3 5.31 3 7.62 3 10 C1.824375 9.505 1.824375 9.505 0.625 9 C-3.99361869 7.72589829 -8.24249356 7.83076064 -13 8 C-12.67 7.34 -12.34 6.68 -12 6 C-9.97399825 5.77488869 -7.94540724 5.5559122 -5.91015625 5.44140625 C-3.59575188 5.13657296 -3.59575188 5.13657296 -2 2 C-1.34 2 -0.68 2 0 2 C0 1.34 0 0.68 0 0 Z " fill="#296BB4" transform="translate(357,240)"/>
<path d="M0 0 C0.66 0.66 1.32 1.32 2 2 C2.66 1.67 3.32 1.34 4 1 C4 10.66666667 4 20.33333333 4 30 C3.67 30 3.34 30 3 30 C2.49384729 26.12577792 1.99617279 22.25051183 1.5 18.375 C1.35691406 17.28058594 1.21382812 16.18617188 1.06640625 15.05859375 C0.93105469 13.99511719 0.79570312 12.93164062 0.65625 11.8359375 C0.53056641 10.86188965 0.40488281 9.8878418 0.27539062 8.88427734 C-0.00906019 5.90510895 -0.04655007 2.99084203 0 0 Z " fill="#D8EEFA" transform="translate(208,183)"/>
<path d="M0 0 C1.585869 3.171738 1.37866445 6.63513822 1.5625 10.125 C1.60568359 10.87910156 1.64886719 11.63320312 1.69335938 12.41015625 C1.7994832 14.27321888 1.90025001 16.13658524 2 18 C0.02 18 -1.96 18 -4 18 C-4 16.68 -4 15.36 -4 14 C-3.34 14 -2.68 14 -2 14 C-2 14.66 -2 15.32 -2 16 C-1.34 16 -0.68 16 0 16 C-0.15597656 15.38511719 -0.31195313 14.77023438 -0.47265625 14.13671875 C-0.66730469 13.32847656 -0.86195313 12.52023438 -1.0625 11.6875 C-1.25972656 10.88699219 -1.45695313 10.08648437 -1.66015625 9.26171875 C-2 7 -2 7 -1 4 C-1.99 4.33 -2.98 4.66 -4 5 C-4 3.68 -4 2.36 -4 1 C-2 0 -2 0 0 0 Z " fill="#81ADC9" transform="translate(209,195)"/>
<path d="M0 0 C0.33 0 0.66 0 1 0 C1.33 8.91 1.66 17.82 2 27 C1.01 27 0.02 27 -1 27 C-1.02892385 22.87501462 -1.04677267 18.75005515 -1.0625 14.625 C-1.07087891 13.449375 -1.07925781 12.27375 -1.08789062 11.0625 C-1.09111328 9.94101563 -1.09433594 8.81953125 -1.09765625 7.6640625 C-1.10289307 6.62717285 -1.10812988 5.5902832 -1.11352539 4.52197266 C-1 2 -1 2 0 0 Z " fill="#FAFDF4" transform="translate(379,127)"/>
<path d="M0 0 C-2.44428712 2.9045484 -2.44428712 2.9045484 -4.87931824 3.32279968 C-5.58325211 3.29837296 -6.28718597 3.27394623 -7.01245117 3.2487793 C-7.81305466 3.22853195 -8.61365814 3.20828461 -9.43852234 3.18742371 C-10.29798965 3.15006607 -11.15745697 3.11270844 -12.04296875 3.07421875 C-12.9265657 3.04777786 -13.81016266 3.02133698 -14.72053528 2.99409485 C-17.54354198 2.90630236 -20.36526649 2.7971642 -23.1875 2.6875 C-25.10086547 2.62424424 -27.01427742 2.56237808 -28.92773438 2.50195312 C-33.61918118 2.35075675 -38.30958952 2.18041256 -43 2 C-43 1.67 -43 1.34 -43 1 C-37.84052331 0.85653282 -32.68101822 0.71415053 -27.52148438 0.57275391 C-25.76789551 0.52454639 -24.01431463 0.47604742 -22.26074219 0.42724609 C-19.73374464 0.35697204 -17.2067198 0.28776158 -14.6796875 0.21875 C-13.90132538 0.19687622 -13.12296326 0.17500244 -12.3210144 0.15246582 C-8.21245693 0.04135575 -4.11057623 -0.0228683 0 0 Z " fill="#256DA8" transform="translate(427,315)"/>
<path d="M0 0 C3.3 0 6.6 0 10 0 C9.67 0.66 9.34 1.32 9 2 C7.02 2 5.04 2 3 2 C3.165 2.78375 3.33 3.5675 3.5 4.375 C4.12960847 8.93966142 4.08180527 13.40072601 4 18 C3.67 18 3.34 18 3 18 C2.67 15.69 2.34 13.38 2 11 C1.34 11 0.68 11 0 11 C0 7.37 0 3.74 0 0 Z " fill="#7FADC9" transform="translate(198,182)"/>
<path d="M0 0 C0 0.33 0 0.66 0 1 C-1.98 1 -3.96 1 -6 1 C-5.67 1.99 -5.34 2.98 -5 4 C-5.99 4 -6.98 4 -8 4 C-8 6.31 -8 8.62 -8 11 C-8.66 11 -9.32 11 -10 11 C-10 10.34 -10 9.68 -10 9 C-10.66 9 -11.32 9 -12 9 C-12.125 5.625 -12.125 5.625 -12 2 C-8.40939861 -1.59060139 -4.69614193 -1.20757935 0 0 Z " fill="#2263A5" transform="translate(297,141)"/>
<path d="M0 0 C2.8125 2.3125 2.8125 2.3125 5 5 C5 6.32 5 7.64 5 9 C1.125 6.25 1.125 6.25 0 4 C-0.763125 4.20625 -1.52625 4.4125 -2.3125 4.625 C-5 5 -5 5 -8 3 C-7.67 2.01 -7.34 1.02 -7 0 C-4.19664415 -1.40167793 -2.9650644 -0.96536981 0 0 Z " fill="#2669AE" transform="translate(331,138)"/>
<path d="M0 0 C0.33 0 0.66 0 1 0 C1.48536252 5.31511741 0.20810636 7.91774296 -2.8125 12.25 C-3.52019531 13.28640625 -4.22789062 14.3228125 -4.95703125 15.390625 C-7 18 -7 18 -10 20 C-9.67 18.35 -9.34 16.7 -9 15 C-8.01 14.67 -7.02 14.34 -6 14 C-6 12.35 -6 10.7 -6 9 C-5.34 9 -4.68 9 -4 9 C-3.8453125 8.1646875 -3.8453125 8.1646875 -3.6875 7.3125 C-2.86410318 4.54289253 -1.59831722 2.39747583 0 0 Z " fill="#DBF0F3" transform="translate(358,258)"/>
<path d="M0 0 C2.76276177 0.52268466 5.3260876 1.10869587 8 2 C8 2.66 8 3.32 8 4 C10.60466543 3.69127671 13.20867691 3.37818277 15.8125 3.0625 C16.55048828 2.97548828 17.28847656 2.88847656 18.04882812 2.79882812 C21.16733121 2.41783454 24.01108122 1.99630626 27 1 C26.67 1.99 26.34 2.98 26 4 C19.85069374 6.99581587 12.84474424 6.78475703 6.375 5 C5.59125 4.67 4.8075 4.34 4 4 C4 3.34 4 2.68 4 2 C2.68 1.34 1.36 0.68 0 0 Z " fill="#336591" transform="translate(296,259)"/>
<path d="M0 0 C3.25677898 0.26406316 4.61989153 0.56746278 6.8125 3.0625 C8.42760047 7.05774853 8.42284054 9.70112116 8 14 C7.01 14.66 6.02 15.32 5 16 C4.67 12.37 4.34 8.74 4 5 C1.525 4.01 1.525 4.01 -1 3 C-0.67 2.01 -0.34 1.02 0 0 Z " fill="#396899" transform="translate(413,274)"/>
<path d="M0 0 C1.65 0 3.3 0 5 0 C5 10.23 5 20.46 5 31 C3.35 31 1.7 31 0 31 C1.32 30.67 2.64 30.34 4 30 C4 23.07 4 16.14 4 9 C3.01 8.67 2.02 8.34 1 8 C1.66 7.67 2.32 7.34 3 7 C3.65213292 4.97536745 3.65213292 4.97536745 4 3 C2.68 3 1.36 3 0 3 C0 2.01 0 1.02 0 0 Z " fill="#7BA7CA" transform="translate(188,225)"/>
<path d="M0 0 C1.32 0 2.64 0 4 0 C4 4.29 4 8.58 4 13 C2.68 13 1.36 13 0 13 C0 8.71 0 4.42 0 0 Z " fill="#C8E6F5" transform="translate(184,225)"/>
<path d="M0 0 C3.45831586 -0.02894547 6.91660072 -0.04678 10.375 -0.0625 C11.35984375 -0.07087891 12.3446875 -0.07925781 13.359375 -0.08789062 C14.77089844 -0.09272461 14.77089844 -0.09272461 16.2109375 -0.09765625 C17.51490479 -0.10551147 17.51490479 -0.10551147 18.84521484 -0.11352539 C21 0 21 0 23 1 C23 1.66 23 2.32 23 3 C11.615 2.505 11.615 2.505 0 2 C0 1.34 0 0.68 0 0 Z " fill="#316697" transform="translate(390,271)"/>
<path d="M0 0 C1.7476678 3.24566877 3.17449315 6.3977883 4 10 C2.875 12.375 2.875 12.375 1 14 C-0.32 14 -1.64 14 -3 14 C-3 11.69 -3 9.38 -3 7 C-2.01 7 -1.02 7 0 7 C0 4.69 0 2.38 0 0 Z " fill="#1E69A7" transform="translate(363,236)"/>
<path d="M0 0 C1.32 0 2.64 0 4 0 C4 1.65 4 3.3 4 5 C3.67 3.68 3.34 2.36 3 1 C2.34 1 1.68 1 1 1 C1.18415432 3.94091587 1.18415432 3.94091587 2 7 C3.86747263 8.39238047 3.86747263 8.39238047 6 9 C6.66 9.33 7.32 9.66 8 10 C8 11.32 8 12.64 8 14 C5.36 13.67 2.72 13.34 0 13 C0 8.66666667 0 4.33333333 0 0 Z " fill="#78AED8" transform="translate(224,187)"/>
<path d="M0 0 C6.35227273 0.48863636 6.35227273 0.48863636 9.375 2.875 C12.59823682 7.090002 12.08297822 10.93832855 12 16 C11.34 16 10.68 16 10 16 C9.67 16.66 9.34 17.32 9 18 C9.01160156 17.31292969 9.02320313 16.62585938 9.03515625 15.91796875 C9.04417969 15.01691406 9.05320312 14.11585938 9.0625 13.1875 C9.07410156 12.29417969 9.08570313 11.40085938 9.09765625 10.48046875 C9.11009967 7.86586209 9.11009967 7.86586209 8 5 C6.15028304 3.94978897 6.15028304 3.94978897 4 3 C2.64886795 2.02418241 1.31053056 1.02970259 0 0 Z " fill="#4E7DA0" transform="translate(327,136)"/>
<path d="M0 0 C1.32 0.33 2.64 0.66 4 1 C4.33 2.65 4.66 4.3 5 6 C5.66 6 6.32 6 7 6 C6.79375 6.61875 6.5875 7.2375 6.375 7.875 C6.25125 8.57625 6.1275 9.2775 6 10 C6.66 10.66 7.32 11.32 8 12 C6.68 12.33 5.36 12.66 4 13 C3.67 11.35 3.34 9.7 3 8 C2.01 8 1.02 8 0 8 C0 5.36 0 2.72 0 0 Z " fill="#91C4E0" transform="translate(232,243)"/>
<path d="M0 0 C0.99 0 1.98 0 3 0 C3 0.99 3 1.98 3 3 C2.34 3 1.68 3 1 3 C1.33 3.99 1.66 4.98 2 6 C2.66 6 3.32 6 4 6 C4.33 4.68 4.66 3.36 5 2 C5.66 2 6.32 2 7 2 C7 3.65 7 5.3 7 7 C5.35 7.33 3.7 7.66 2 8 C2 9.32 2 10.64 2 12 C4.31 12 6.62 12 9 12 C9.33 10.68 9.66 9.36 10 8 C10 9.65 10 11.3 10 13 C7.03 13 4.06 13 1 13 C-0.10228696 8.59085217 -0.07654536 4.51617599 0 0 Z " fill="#96C2E0" transform="translate(163,200)"/>
<path d="M0 0 C1.4540625 0.0309375 1.4540625 0.0309375 2.9375 0.0625 C3.5625 2.4375 3.5625 2.4375 3.9375 5.0625 C1.9375 7.0625 1.9375 7.0625 -0.625 7.25 C-3.0625 7.0625 -3.0625 7.0625 -4.0625 6.0625 C-4.1875 3.5625 -4.1875 3.5625 -4.0625 1.0625 C-3.0625 0.0625 -3.0625 0.0625 0 0 Z " fill="#BDD9EC" transform="translate(296.0625,143.9375)"/>
<path d="M0 0 C0.99 0.33 1.98 0.66 3 1 C3 5.95 3 10.9 3 16 C2.01 16 1.02 16 0 16 C0 10.72 0 5.44 0 0 Z " fill="#66ABDC" transform="translate(163,184)"/>
<path d="M0 0 C0.33 1.32 0.66 2.64 1 4 C-1.64 4 -4.28 4 -7 4 C-7.33 3.34 -7.66 2.68 -8 2 C-10.80980673 1.30772968 -10.80980673 1.30772968 -14.0625 0.875 C-15.71958984 0.62363281 -15.71958984 0.62363281 -17.41015625 0.3671875 C-18.26480469 0.24601563 -19.11945313 0.12484375 -20 0 C-20 -0.33 -20 -0.66 -20 -1 C-12.97216188 -2.35150733 -6.97671158 -1.40697017 0 0 Z " fill="#1E66A8" transform="translate(324,189)"/>
<path d="M0 0 C0.99 0.33 1.98 0.66 3 1 C2.67 4.3 2.34 7.6 2 11 C3.32 11.33 4.64 11.66 6 12 C4.02 12.33 2.04 12.66 0 13 C-2.48772258 9.7162062 -3.03180444 8.38801417 -2.6875 4.1875 C-2.460625 3.135625 -2.23375 2.08375 -2 1 C-1.67 1 -1.34 1 -1 1 C-1 3.64 -1 6.28 -1 9 C-0.34 9 0.32 9 1 9 C0.67 8.34 0.34 7.68 0 7 C-0.04022391 4.6670134 -0.04320247 2.33293334 0 0 Z " fill="#69A8D3" transform="translate(222,185)"/>
<path d="M0 0 C0.33 0 0.66 0 1 0 C1.04898437 0.61488281 1.09796875 1.22976563 1.1484375 1.86328125 C1.22320312 2.67152344 1.29796875 3.47976563 1.375 4.3125 C1.44460938 5.11300781 1.51421875 5.91351563 1.5859375 6.73828125 C1.89564426 9.27224441 1.89564426 9.27224441 4 12 C4 13.32 4 14.64 4 16 C3.34 16 2.68 16 2 16 C1.67 19.96 1.34 23.92 1 28 C0.67 28 0.34 28 0 28 C-0.02721176 26.10424749 -0.04649136 24.20838021 -0.0625 22.3125 C-0.07410156 21.25675781 -0.08570313 20.20101563 -0.09765625 19.11328125 C-0.00865425 16.27589738 0.35060162 13.7561081 1 11 C0.34 11 -0.32 11 -1 11 C-1.125 3.375 -1.125 3.375 0 0 Z " fill="#BBD6E5" transform="translate(370,280)"/>
<path d="M0 0 C0.99 0 1.98 0 3 0 C3 6.6 3 13.2 3 20 C2.34 20 1.68 20 1 20 C0.67 13.4 0.34 6.8 0 0 Z " fill="#CCECFA" transform="translate(167,182)"/>
<path d="M0 0 C1.98 0 3.96 0 6 0 C7.125 4.75 7.125 4.75 6 7 C3.625 7.125 3.625 7.125 1 7 C0.34 6.34 -0.32 5.68 -1 5 C-0.625 2.375 -0.625 2.375 0 0 Z " fill="#D8EDF8" transform="translate(324,144)"/>
<path d="M0 0 C1.670625 0.061875 1.670625 0.061875 3.375 0.125 C3.705 1.115 4.035 2.105 4.375 3.125 C5.365 3.455 6.355 3.785 7.375 4.125 C8.39103857 9.91641983 8.33763236 13.5834498 6.375 19.125 C5.715 18.795 5.055 18.465 4.375 18.125 C4.48328125 16.98611328 4.48328125 16.98611328 4.59375 15.82421875 C4.73296875 14.33341797 4.73296875 14.33341797 4.875 12.8125 C4.9678125 11.82636719 5.060625 10.84023437 5.15625 9.82421875 C5.41538857 7.07797861 5.41538857 7.07797861 5.375 4.125 C1.745 3.465 -1.885 2.805 -5.625 2.125 C-3.625 0.125 -3.625 0.125 0 0 Z " fill="#D6EFFA" transform="translate(234.625,222.875)"/>
<path d="M0 0 C0.33 0 0.66 0 1 0 C1.67453101 7.68483539 2.1567564 15.28410183 2 23 C1.34 23 0.68 23 0 23 C-0.33 23.99 -0.66 24.98 -1 26 C-1.12852505 17.27457699 -0.79645684 8.68991301 0 0 Z " fill="#C5E9F9" transform="translate(174,187)"/>
<path d="M0 0 C4.0829596 -0.14518182 8.16525641 -0.23403347 12.25 -0.3125 C13.40886719 -0.35439453 14.56773437 -0.39628906 15.76171875 -0.43945312 C24.37401805 -0.56390832 24.37401805 -0.56390832 27.796875 2.51953125 C28.19390625 3.33808594 28.5909375 4.15664062 29 5 C27.87078125 4.69255859 27.87078125 4.69255859 26.71875 4.37890625 C17.77636338 2.11075236 9.19162629 1.34217864 0 1 C0 0.67 0 0.34 0 0 Z " fill="#BBD9EB" transform="translate(304,184)"/>
<path d="M0 0 C1.9453125 -0.29296875 1.9453125 -0.29296875 4.125 -0.1875 C5.40375 -0.125625 6.6825 -0.06375 8 0 C8 0.66 8 1.32 8 2 C7.01 2 6.02 2 5 2 C5 2.99 5 3.98 5 5 C3.02 5.99 1.04 6.98 -1 8 C-1.625 5.6875 -1.625 5.6875 -2 3 C-1.34 2.01 -0.68 1.02 0 0 Z " fill="#216DAB" transform="translate(281,195)"/>
<path d="M0 0 C2.38564077 0.57584432 4.66682784 1.22227595 7 2 C7.6875 4.0625 7.6875 4.0625 8 6 C7.34 6 6.68 6 6 6 C6 5.34 6 4.68 6 4 C4.68 3.67 3.36 3.34 2 3 C2 5.97 2 8.94 2 12 C1.01 11.67 0.02 11.34 -1 11 C-1.125 3.375 -1.125 3.375 0 0 Z " fill="#DCEAF2" transform="translate(276,280)"/>
<path d="M0 0 C0.66 0.33 1.32 0.66 2 1 C2.74645504 3.98582017 3.23094562 6.00333977 3 9 C0.875 12 0.875 12 -2 14 C-4.8125 14.3125 -4.8125 14.3125 -7 14 C-6.38125 13.7525 -5.7625 13.505 -5.125 13.25 C-2.48607822 11.69769307 -1.98872888 10.89013058 -1 8 C-0.55557214 5.33343287 -0.26934472 2.69344718 0 0 Z " fill="#D1E8F4" transform="translate(307,144)"/>
<path d="M0 0 C1.32 0.33 2.64 0.66 4 1 C4 1.66 4 2.32 4 3 C5.98 3.66 7.96 4.32 10 5 C10 5.99 10 6.98 10 8 C7.36 7.34 4.72 6.68 2 6 C1.67 6.66 1.34 7.32 1 8 C1.66 8 2.32 8 3 8 C2.67 8.66 2.34 9.32 2 10 C1.34 9.67 0.68 9.34 0 9 C0 6.03 0 3.06 0 0 Z " fill="#41769F" transform="translate(278,283)"/>
<path d="M0 0 C0.99 0 1.98 0 3 0 C3 4.62 3 9.24 3 14 C2.01 14 1.02 14 0 14 C0 9.38 0 4.76 0 0 Z " fill="#6AADDB" transform="translate(243,186)"/>
<path d="M0 0 C1.98 0 3.96 0 6 0 C6.625 2.375 6.625 2.375 7 5 C6.34 5.66 5.68 6.32 5 7 C3.68 7 2.36 7 1 7 C0.67 4.69 0.34 2.38 0 0 Z " fill="#376891" transform="translate(367,144)"/>
<path d="M0 0 C0.33 0 0.66 0 1 0 C2.342 7.442 2.342 7.442 0.8125 9.9375 C-1.12625153 11.07400952 -2.79091886 11.61912394 -5 12 C-4.51421457 8.87709365 -4.0013988 6.00419641 -3 3 C-2.01 3 -1.02 3 0 3 C0 2.01 0 1.02 0 0 Z " fill="#2266A1" transform="translate(366,248)"/>
<path d="M0 0 C0.33 0 0.66 0 1 0 C1.33 5.28 1.66 10.56 2 16 C-0.31 16 -2.62 16 -5 16 C-5 14.68 -5 13.36 -5 12 C-3.68 11.67 -2.36 11.34 -1 11 C-0.67 7.37 -0.34 3.74 0 0 Z " fill="#6CAACF" transform="translate(170,196)"/>
<path d="M0 0 C0.33 0 0.66 0 1 0 C1.2700558 7.8316181 0.23107719 15.27279225 -1 23 C-1.33 23 -1.66 23 -2 23 C-2.38063221 20.6739143 -2.71269945 18.33944736 -3 16 C-2.67 15.67 -2.34 15.34 -2 15 C-1.96822763 11.66390116 -2.06864009 8.33875494 -2.16015625 5.00390625 C-2 2 -2 2 0 0 Z " fill="#DCEBFB" transform="translate(197,183)"/>
<path d="M0 0 C0.99 0.33 1.98 0.66 3 1 C2.46930939 4.82097239 1.50298434 7.06171403 -1 10 C-1.66 9.67 -2.32 9.34 -3 9 C-3.36923077 3.46153846 -3.36923077 3.46153846 -1.5 1.125 C-1.005 0.75375 -0.51 0.3825 0 0 Z " fill="#82C1EF" transform="translate(381,279)"/>
<path d="M0 0 C0.33 0 0.66 0 1 0 C1 10.23 1 20.46 1 31 C0.01 30.67 -0.98 30.34 -2 30 C-2 28.68 -2 27.36 -2 26 C-1.34 26 -0.68 26 0 26 C0 17.42 0 8.84 0 0 Z " fill="#DDF4FC" transform="translate(241,182)"/>
<path d="M0 0 C0.33 0 0.66 0 1 0 C1.33 7.92 1.66 15.84 2 24 C3.65 24.33 5.3 24.66 7 25 C6.34 25.33 5.68 25.66 5 26 C4.67 26.66 4.34 27.32 4 28 C2.68 27.34 1.36 26.68 0 26 C0 17.42 0 8.84 0 0 Z " fill="#6EA4C9" transform="translate(203,227)"/>
<path d="M0 0 C0.99 0 1.98 0 3 0 C3 4.29 3 8.58 3 13 C2.01 13 1.02 13 0 13 C0 8.71 0 4.42 0 0 Z " fill="#D3F4FC" transform="translate(248,200)"/>
<path d="M0 0 C0.66 0 1.32 0 2 0 C2 5.28 2 10.56 2 16 C1.34 16 0.68 16 0 16 C0 15.34 0 14.68 0 14 C-0.66 13.67 -1.32 13.34 -2 13 C-1.34 8.71 -0.68 4.42 0 0 Z " fill="#67AAD5" transform="translate(253,184)"/>
<path d="M0 0 C0.99 0 1.98 0 3 0 C3 4.29 3 8.58 3 13 C2.01 13 1.02 13 0 13 C0 8.71 0 4.42 0 0 Z " fill="#D6F4FD" transform="translate(248,182)"/>
<path d="M0 0 C0.33 0 0.66 0 1 0 C1 1.98 1 3.96 1 6 C1.66 6 2.32 6 3 6 C3 6.66 3 7.32 3 8 C3.66 8 4.32 8 5 8 C5 5.69 5 3.38 5 1 C5.99 1 6.98 1 8 1 C8.33 2.98 8.66 4.96 9 7 C5.535 8.485 5.535 8.485 2 10 C2 9.34 2 8.68 2 8 C1.34 8 0.68 8 0 8 C0 5.36 0 2.72 0 0 Z " fill="#4176A8" transform="translate(284,144)"/>
<path d="M0 0 C0.33 0 0.66 0 1 0 C1 2.64 1 5.28 1 8 C1.66 8 2.32 8 3 8 C2.67 9.65 2.34 11.3 2 13 C1.34 13 0.68 13 0 13 C-0.66 14.32 -1.32 15.64 -2 17 C-3.44715727 13.12813552 -2.5441918 10.1767672 -1.5625 6.25 C-1.27503906 5.07953125 -0.98757813 3.9090625 -0.69140625 2.703125 C-0.46324219 1.81109375 -0.23507812 0.9190625 0 0 Z " fill="#3C75AC" transform="translate(361,251)"/>
<path d="M0 0 C4.31392226 0.4793247 6.16569547 1.7457985 9 5 C8.67 5.99 8.34 6.98 8 8 C6.68 6.68 5.36 5.36 4 4 C3.34 4.66 2.68 5.32 2 6 C-0.125 5.625 -0.125 5.625 -2 5 C-2 4.34 -2 3.68 -2 3 C-1.34 3 -0.68 3 0 3 C0 2.01 0 1.02 0 0 Z " fill="#2066AB" transform="translate(348,201)"/>
<path d="M0 0 C0.99 0.33 1.98 0.66 3 1 C3 1.66 3 2.32 3 3 C4.32 3.33 5.64 3.66 7 4 C7 6.31 7 8.62 7 11 C6.01 11 5.02 11 4 11 C4 9.02 4 7.04 4 5 C2.02 5 0.04 5 -2 5 C-1.01 4.34 -0.02 3.68 1 3 C0.67 2.01 0.34 1.02 0 0 Z " fill="#C7EAF8" transform="translate(221,197)"/>
<path d="M0 0 C0.66 0.99 1.32 1.98 2 3 C1.3503125 3.83144531 1.3503125 3.83144531 0.6875 4.6796875 C0.130625 5.40414063 -0.42625 6.12859375 -1 6.875 C-1.556875 7.59429687 -2.11375 8.31359375 -2.6875 9.0546875 C-4.18643377 10.8852085 -4.18643377 10.8852085 -4 13 C-5.98 13.99 -5.98 13.99 -8 15 C-8.66 14.34 -9.32 13.68 -10 13 C-9.52949219 12.48050781 -9.05898438 11.96101563 -8.57421875 11.42578125 C-5.32559823 7.78705723 -2.30339528 4.33580287 0 0 Z " fill="#D6EBF5" transform="translate(362,272)"/>
<path d="M0 0 C1.125 3.75 1.125 3.75 0 6 C-0.07033769 7.87379605 -0.0843022 9.75001102 -0.0625 11.625 C-0.05347656 12.62789062 -0.04445313 13.63078125 -0.03515625 14.6640625 C-0.02355469 15.43492187 -0.01195312 16.20578125 0 17 C-2.13044088 15.28099347 -2.93135469 14.40312296 -3.3984375 11.66015625 C-3.39070313 10.80292969 -3.38296875 9.94570312 -3.375 9.0625 C-3.38273437 8.20785156 -3.39046875 7.35320312 -3.3984375 6.47265625 C-2.9319174 3.5774874 -1.91238222 2.18052047 0 0 Z " fill="#41709B" transform="translate(319,138)"/>
<path d="M0 0 C1.98 0 3.96 0 6 0 C6 1.98 6 3.96 6 6 C7.65 6 9.3 6 11 6 C11.33 5.34 11.66 4.68 12 4 C11.67 5.32 11.34 6.64 11 8 C9.02 8.33 7.04 8.66 5 9 C5 6.36 5 3.72 5 1 C3.68 1 2.36 1 1 1 C1 3.31 1 5.62 1 8 C0.67 8 0.34 8 0 8 C0 5.36 0 2.72 0 0 Z " fill="#84B7D4" transform="translate(219,202)"/>
<path d="M0 0 C7.48686787 0.1386457 12.41940395 3.04836457 18 8 C18 8.66 18 9.32 18 10 C13.98544673 8.06706695 10.23844475 5.75514924 6.4375 3.4375 C4.32613805 2.19233783 2.20733252 1.06278973 0 0 Z " fill="#376491" transform="translate(331,190)"/>
<path d="M0 0 C0.66 0 1.32 0 2 0 C2.33 1.32 2.66 2.64 3 4 C3.99 4 4.98 4 6 4 C6 5.32 6 6.64 6 8 C5.01 8 4.02 8 3 8 C2.34 9.32 1.68 10.64 1 12 C0.67 8.04 0.34 4.08 0 0 Z " fill="#E4F5FC" transform="translate(233,196)"/>
<path d="M0 0 C0.79921875 0.11085937 1.5984375 0.22171875 2.421875 0.3359375 C3.32679688 0.47902344 3.32679688 0.47902344 4.25 0.625 C3.26 1.12 3.26 1.12 2.25 1.625 C2.25 2.285 2.25 2.945 2.25 3.625 C-1.38 3.625 -5.01 3.625 -8.75 3.625 C-8.75 2.965 -8.75 2.305 -8.75 1.625 C-5.5750906 -0.2828584 -3.64414789 -0.5359041 0 0 Z " fill="#2066A5" transform="translate(295.75,151.375)"/>
<path d="M0 0 C2.875 0.3125 2.875 0.3125 6 1 C6.66 1.99 7.32 2.98 8 4 C7.67 4.66 7.34 5.32 7 6 C3.31245243 5.50168276 1.39509338 4.89932357 -1 2 C-0.67 1.34 -0.34 0.68 0 0 Z " fill="#2D67A1" transform="translate(296,136)"/>
<path d="M0 0 C1.65 0 3.3 0 5 0 C5 0.99 5 1.98 5 3 C4.34 3 3.68 3 3 3 C3 5.64 3 8.28 3 11 C2.01 11 1.02 11 0 11 C-0.33 11.66 -0.66 12.32 -1 13 C-1 12.34 -1 11.68 -1 11 C-1.66 10.67 -2.32 10.34 -3 10 C-2.360625 9.896875 -1.72125 9.79375 -1.0625 9.6875 C-0.0415625 9.3471875 -0.0415625 9.3471875 1 9 C1.33 8.01 1.66 7.02 2 6 C1.34 5.67 0.68 5.34 0 5 C0 3.35 0 1.7 0 0 Z " fill="#DFEBF4" transform="translate(275,115)"/>
<path d="M0 0 C0.33 1.98 0.66 3.96 1 6 C-3.455 5.01 -3.455 5.01 -8 4 C-5.68460883 -0.63078234 -4.96616141 -1.65538714 0 0 Z " fill="#2368A9" transform="translate(336,192)"/>
<path d="M0 0 C0.33 0 0.66 0 1 0 C1 1.65 1 3.3 1 5 C1.66 5 2.32 5 3 5 C3 7.64 3 10.28 3 13 C2.34 13 1.68 13 1 13 C0.34 12.34 -0.32 11.68 -1 11 C-0.9765625 8.3984375 -0.9765625 8.3984375 -0.625 5.375 C-0.51414062 4.37210938 -0.40328125 3.36921875 -0.2890625 2.3359375 C-0.19367188 1.56507813 -0.09828125 0.79421875 0 0 Z " fill="#25649F" transform="translate(366,227)"/>
<path d="M0 0 C1.65 0 3.3 0 5 0 C5 0.66 5 1.32 5 2 C5.99 2 6.98 2 8 2 C8 2.66 8 3.32 8 4 C8.99 4 9.98 4 11 4 C10.25 9.75 10.25 9.75 8 12 C7.979375 10.9275 7.95875 9.855 7.9375 8.75 C7.40918155 5.07050859 7.40918155 5.07050859 5.375 3.64453125 C3.63165991 2.67093205 1.8178015 1.82627341 0 1 C0 0.67 0 0.34 0 0 Z " fill="#E0F2FD" transform="translate(226,180)"/>
<path d="M0 0 C3.3 0.99 6.6 1.98 10 3 C9.67 3.99 9.34 4.98 9 6 C8.01 6 7.02 6 6 6 C6 6.66 6 7.32 6 8 C5.01 7.67 4.02 7.34 3 7 C3.66 6.01 4.32 5.02 5 4 C3.35 3.67 1.7 3.34 0 3 C0 2.01 0 1.02 0 0 Z " fill="#276199" transform="translate(288,290)"/>
<path d="M0 0 C0.66 0 1.32 0 2 0 C2.33 1.98 2.66 3.96 3 6 C5.31 6.33 7.62 6.66 10 7 C9.01 8.485 9.01 8.485 8 10 C5.36 9.01 2.72 8.02 0 7 C0 4.69 0 2.38 0 0 Z " fill="#3A6993" transform="translate(278,242)"/>
<path d="M0 0 C0.99 0 1.98 0 3 0 C3.02698189 1.62490954 3.04638757 3.24994633 3.0625 4.875 C3.07410156 5.77992188 3.08570313 6.68484375 3.09765625 7.6171875 C3 10 3 10 2 12 C1.01 11.67 0.02 11.34 -1 11 C-0.835 10.29875 -0.67 9.5975 -0.5 8.875 C0.02415338 5.86111806 0.07099683 3.05286375 0 0 Z " fill="#7DACC6" transform="translate(238,242)"/>
<path d="M0 0 C-0.33 1.32 -0.66 2.64 -1 4 C0.65 4 2.3 4 4 4 C0.25 6 0.25 6 -2 6 C-2 4.68 -2 3.36 -2 2 C-3.670625 2.309375 -3.670625 2.309375 -5.375 2.625 C-6.57125 2.74875 -7.7675 2.8725 -9 3 C-9.66 2.34 -10.32 1.68 -11 1 C-6.92630576 -1.03684712 -4.41062136 -1.0257259 0 0 Z " fill="#3874A8" transform="translate(296,189)"/>
<path d="M0 0 C1.6045556 0.14148989 3.20863767 0.28835686 4.8125 0.4375 C5.70582031 0.51871094 6.59914063 0.59992188 7.51953125 0.68359375 C10 1 10 1 13 2 C12.67 2.66 12.34 3.32 12 4 C3.42857143 4.28571429 3.42857143 4.28571429 0 2 C0 1.34 0 0.68 0 0 Z " fill="#47759A" transform="translate(288,155)"/>
<path d="M0 0 C0.33 0 0.66 0 1 0 C1.47877076 4.11742854 1.32165374 5.58006317 -1.25 8.9375 C-4 11 -4 11 -6.3125 10.8125 C-6.869375 10.544375 -7.42625 10.27625 -8 10 C-7.05125 9.278125 -6.1025 8.55625 -5.125 7.8125 C-2.32587438 5.50190102 -1.01482442 3.55188548 0 0 Z " fill="#CCE1F1" transform="translate(432,307)"/>
<path d="M0 0 C0.33 0 0.66 0 1 0 C1.061875 0.78375 1.12375 1.5675 1.1875 2.375 C1.455625 3.24125 1.72375 4.1075 2 5 C4.47636012 6.37466625 4.47636012 6.37466625 7 7 C6.01 7.495 6.01 7.495 5 8 C5 8.66 5 9.32 5 10 C2.03 9.505 2.03 9.505 -1 9 C-0.67 6.03 -0.34 3.06 0 0 Z " fill="#CEE3F2" transform="translate(421,282)"/>
<path d="M0 0 C0.8971875 0.309375 0.8971875 0.309375 1.8125 0.625 C-1.51057692 5.425 -1.51057692 5.425 -4.9375 6.4375 C-5.68 6.499375 -6.4225 6.56125 -7.1875 6.625 C-4.6484375 -0.796875 -4.6484375 -0.796875 0 0 Z " fill="#3C729C" transform="translate(379.1875,272.375)"/>
<path d="M0 0 C1.0326802 2.78823655 1.04509293 3.8677274 0.0625 6.75 C-0.288125 7.4925 -0.63875 8.235 -1 9 C-1.99 9 -2.98 9 -4 9 C-4 9.66 -4 10.32 -4 11 C-5.32 11.33 -6.64 11.66 -8 12 C-4 6 -4 6 0 0 Z " fill="#4A76A1" transform="translate(356,267)"/>
<path d="M0 0 C0.33 0 0.66 0 1 0 C1.33 3.63 1.66 7.26 2 11 C2.66 11 3.32 11 4 11 C4 11.66 4 12.32 4 13 C4.66 13.33 5.32 13.66 6 14 C4.35 14.66 2.7 15.32 1 16 C-0.12862175 10.63904667 -0.09688221 5.44693314 0 0 Z " fill="#E7F8FD" transform="translate(217,186)"/>
<path d="M0 0 C0 0.33 0 0.66 0 1 C-1.98 1.33 -3.96 1.66 -6 2 C-6 5.63 -6 9.26 -6 13 C-6.66 13 -7.32 13 -8 13 C-8.2165625 11.63875 -8.2165625 11.63875 -8.4375 10.25 C-8.88744201 7.14023469 -8.88744201 7.14023469 -9.75 4.8125 C-10 3 -10 3 -9 1.25 C-6.03327697 -0.6042019 -3.41502959 -0.19330356 0 0 Z " fill="#96C2E0" transform="translate(229,181)"/>
<path d="M0 0 C1 2 1 2 0.8125 4.3125 C1.06279149 7.90001142 2.62241765 9.39951931 5 12 C0.25 11.125 0.25 11.125 -2 10 C-1.85950482 8.52031676 -1.71245174 7.04125484 -1.5625 5.5625 C-1.48128906 4.73878906 -1.40007812 3.91507812 -1.31640625 3.06640625 C-1 1 -1 1 0 0 Z " fill="#3E719F" transform="translate(378,300)"/>
<path d="M0 0 C1.98 0.66 3.96 1.32 6 2 C5.1875 3.9375 5.1875 3.9375 4 6 C3.01 6.33 2.02 6.66 1 7 C-0.0625 4.625 -0.0625 4.625 -1 2 C-0.67 1.34 -0.34 0.68 0 0 Z " fill="#316CA4" transform="translate(352,276)"/>
<path d="M0 0 C4.95 0 9.9 0 15 0 C15 1.32 15 2.64 15 4 C13.824375 3.505 13.824375 3.505 12.625 3 C8.00638131 1.72589829 3.75750644 1.83076064 -1 2 C-0.67 1.34 -0.34 0.68 0 0 Z " fill="#4D7EA9" transform="translate(345,246)"/>
<path d="M0 0 C0.33 0.66 0.66 1.32 1 2 C0.34 2 -0.32 2 -1 2 C-1 2.66 -1 3.32 -1 4 C-1.495 4.4125 -1.99 4.825 -2.5 5.25 C-4.65847858 7.76822501 -4.21374961 9.79375585 -4 13 C-4.66 13 -5.32 13 -6 13 C-6 9.7 -6 6.4 -6 3 C-4.02 2.01 -2.04 1.02 0 0 Z " fill="#3E7094" transform="translate(284,191)"/>
<path d="M0 0 C0.66 0 1.32 0 2 0 C1.67 1.32 1.34 2.64 1 4 C-1.97 4 -4.94 4 -8 4 C-8.33 3.01 -8.66 2.02 -9 1 C-7.700625 1.020625 -6.40125 1.04125 -5.0625 1.0625 C-3.70834367 1.08399454 -2.35243917 1.07148199 -1 1 C-0.67 0.67 -0.34 0.34 0 0 Z " fill="#507A9C" transform="translate(331,155)"/>
<path d="M0 0 C0.99 0 1.98 0 3 0 C3 2.31 3 4.62 3 7 C3.66 7 4.32 7 5 7 C5 7.66 5 8.32 5 9 C3.35 8.67 1.7 8.34 0 8 C0 5.36 0 2.72 0 0 Z " fill="#256FB7" transform="translate(318,144)"/>
<path d="M0 0 C0.33 0 0.66 0 1 0 C1.33 3.63 1.66 7.26 2 11 C0.68 10.67 -0.64 10.34 -2 10 C-2.22036864 6.14354879 -1.60355101 3.50776784 0 0 Z " fill="#63AEDE" transform="translate(229,232)"/>
<path d="M0 0 C0.33 0 0.66 0 1 0 C1.33 2.31 1.66 4.62 2 7 C-0.76276177 6.47731534 -3.3260876 5.89130413 -6 5 C-5.67 4.01 -5.34 3.02 -5 2 C-3.68 2 -2.36 2 -1 2 C-0.67 1.34 -0.34 0.68 0 0 Z M-2 3 C-1 5 -1 5 -1 5 Z " fill="#77BBEC" transform="translate(361,235)"/>
<path d="M0 0 C0.66 0 1.32 0 2 0 C2 0.99 2 1.98 2 3 C4.64 3 7.28 3 10 3 C10 3.99 10 4.98 10 6 C5.94393835 5.53199289 2.53411321 5.12046792 -1 3 C-0.67 2.01 -0.34 1.02 0 0 Z " fill="#E0F6FE" transform="translate(174,210)"/>
<path d="M0 0 C1.65 0 3.3 0 5 0 C4.67 1.32 4.34 2.64 4 4 C3.34 4 2.68 4 2 4 C1.67 6.97 1.34 9.94 1 13 C0.67 13 0.34 13 0 13 C0 8.71 0 4.42 0 0 Z " fill="#7AA7C6" transform="translate(182,182)"/>
<path d="M0 0 C1.98 0 3.96 0 6 0 C5.67 1.32 5.34 2.64 5 4 C4.01 3.34 3.02 2.68 2 2 C2 5.96 2 9.92 2 14 C1.67 14 1.34 14 1 14 C0.67 9.38 0.34 4.76 0 0 Z " fill="#85B5D1" transform="translate(161,182)"/>
<path d="M0 0 C7.26153846 0.36923077 7.26153846 0.36923077 11 3.5625 C11.99 4.7690625 11.99 4.7690625 13 6 C3.40546697 3.10933941 3.40546697 3.10933941 0 0 Z " fill="#527EA8" transform="translate(282,294)"/>
<path d="M0 0 C-0.33 0.99 -0.66 1.98 -1 3 C-1.66 3 -2.32 3 -3 3 C-3 3.99 -3 4.98 -3 6 C-3.5775 5.814375 -4.155 5.62875 -4.75 5.4375 C-7.20692525 4.95976454 -8.64397534 5.24270636 -11 6 C-7.87921364 2.5324596 -4.85451611 0 0 0 Z " fill="#2066A6" transform="translate(350,282)"/>
<path d="M0 0 C2.29013653 3.4352048 2.17842973 4.985331 2 9 C0.68 8.34 -0.64 7.68 -2 7 C-1.125 2.25 -1.125 2.25 0 0 Z M-1 9 C1 10 1 10 1 10 Z " fill="#1C6AAE" transform="translate(386,263)"/>
<path d="M0 0 C0 2.62113708 -0.31292445 4.50935112 -1 7 C-3.64 7 -6.28 7 -9 7 C-4.25 3 -4.25 3 -2 3 C-2 2.34 -2 1.68 -2 1 C-1.34 0.67 -0.68 0.34 0 0 Z " fill="#3778BA" transform="translate(330,248)"/>
<path d="M0 0 C0.33 1.32 0.66 2.64 1 4 C1.99 4.33 2.98 4.66 4 5 C4 7.31 4 9.62 4 12 C3.34 11.34 2.68 10.68 2 10 C1.01 10.495 1.01 10.495 0 11 C0 7.37 0 3.74 0 0 Z " fill="#6CA6CE" transform="translate(227,226)"/>
<path d="M0 0 C2.31 0 4.62 0 7 0 C5.68 0.33 4.36 0.66 3 1 C2.67 3.64 2.34 6.28 2 9 C1.34 9 0.68 9 0 9 C0 6.03 0 3.06 0 0 Z " fill="#6CAAC9" transform="translate(171,183)"/>
<path d="M0 0 C0.33 0 0.66 0 1 0 C1 1.98 1 3.96 1 6 C0.34 6 -0.32 6 -1 6 C-1.33 8.97 -1.66 11.94 -2 15 C-2.33 15 -2.66 15 -3 15 C-3.02698189 13.37509046 -3.04638757 11.75005367 -3.0625 10.125 C-3.07410156 9.22007812 -3.08570313 8.31515625 -3.09765625 7.3828125 C-3 5 -3 5 -2 3 C-1.34 3 -0.68 3 0 3 C0 2.01 0 1.02 0 0 Z " fill="#3E7194" transform="translate(374,293)"/>
<path d="M0 0 C0.66 0 1.32 0 2 0 C0.70401211 2.89104992 -0.49296136 5.03018393 -3 7 C-6.1875 8.1875 -6.1875 8.1875 -9 9 C-7.71034824 7.62437146 -6.37310707 6.29233607 -5 5 C-4.34 5 -3.68 5 -3 5 C-2.690625 4.360625 -2.38125 3.72125 -2.0625 3.0625 C-1 1 -1 1 0 0 Z " fill="#C7E1EE" transform="translate(339,250)"/>
<path d="M0 0 C0.33 0 0.66 0 1 0 C1 2.64 1 5.28 1 8 C-0.65 8 -2.3 8 -4 8 C-4 7.34 -4 6.68 -4 6 C-3.34 6 -2.68 6 -2 6 C-1.855625 5.195625 -1.71125 4.39125 -1.5625 3.5625 C-1 1 -1 1 0 0 Z " fill="#67AEDA" transform="translate(183,202)"/>
<path d="M0 0 C1.32 0 2.64 0 4 0 C4 1.65 4 3.3 4 5 C3.67 3.68 3.34 2.36 3 1 C2.34 1 1.68 1 1 1 C1.33 2.98 1.66 4.96 2 7 C2.99 7.33 3.98 7.66 5 8 C5 8.33 5 8.66 5 9 C3.35 9 1.7 9 0 9 C0 6.03 0 3.06 0 0 Z " fill="#91C5E0" transform="translate(224,187)"/>
<path d="M0 0 C0.33 0 0.66 0 1 0 C2.4516129 8.38709677 2.4516129 8.38709677 1 11 C-2.0625 12.25 -2.0625 12.25 -5 13 C-5 11 -5 11 -3.625 9.375 C-2 8 -2 8 0 8 C0 5.36 0 2.72 0 0 Z " fill="#D7EEF6" transform="translate(339,144)"/>
<path d="M0 0 C-4.82029598 3.97674419 -4.82029598 3.97674419 -8.1796875 4.04296875 C-10.13337437 3.78224541 -12.06987075 3.39933709 -14 3 C-14 2.67 -14 2.34 -14 2 C-12.04396149 1.47061343 -10.08507711 0.95173199 -8.125 0.4375 C-7.03445313 0.14746094 -5.94390625 -0.14257812 -4.8203125 -0.44140625 C-2 -1 -2 -1 0 0 Z " fill="#D5EBF4" transform="translate(334,299)"/>
<path d="M0 0 C0.99 0 1.98 0 3 0 C3 2.64 3 5.28 3 8 C2.01 8 1.02 8 0 8 C0 5.36 0 2.72 0 0 Z " fill="#C5F0FC" transform="translate(232,230)"/>
<path d="M0 0 C1.32 0 2.64 0 4 0 C4.33 2.97 4.66 5.94 5 9 C4.01 8.67 3.02 8.34 2 8 C2 6.68 2 5.36 2 4 C1.34 4 0.68 4 0 4 C0 2.68 0 1.36 0 0 Z " fill="#8FC4DF" transform="translate(197,192)"/>
<path d="M0 0 C0.33 0.99 0.66 1.98 1 3 C-0.21484375 5.04296875 -0.21484375 5.04296875 -1.9375 7.1875 C-2.50339844 7.90292969 -3.06929688 8.61835938 -3.65234375 9.35546875 C-4.09707031 9.89816406 -4.54179687 10.44085938 -5 11 C-5.33 10.01 -5.66 9.02 -6 8 C-5.38125 7.4225 -4.7625 6.845 -4.125 6.25 C-2.18652947 4.19750179 -1.09985751 2.56633418 0 0 Z " fill="#E2F5FA" transform="translate(354,267)"/>
<path d="M0 0 C-0.8125 2.4375 -0.8125 2.4375 -2 5 C-5.28976808 6.09658936 -6.71303767 5.79953138 -10 5 C-9.4225 4.731875 -8.845 4.46375 -8.25 4.1875 C-5.94252104 3.04946754 -5.94252104 3.04946754 -3.875 1.375 C-2 0 -2 0 0 0 Z " fill="#CAE5F1" transform="translate(330,259)"/>
<path d="M0 0 C2.76276177 0.52268466 5.3260876 1.10869587 8 2 C8 2.66 8 3.32 8 4 C9.32 4 10.64 4 12 4 C12 4.66 12 5.32 12 6 C9.36 5.34 6.72 4.68 4 4 C4 3.34 4 2.68 4 2 C2.68 1.34 1.36 0.68 0 0 Z " fill="#426C95" transform="translate(296,259)"/>
<path d="M0 0 C0.99 0 1.98 0 3 0 C3 2.31 3 4.62 3 7 C2.01 7.33 1.02 7.66 0 8 C0 5.36 0 2.72 0 0 Z " fill="#D5F2FC" transform="translate(232,243)"/>
<path d="M0 0 C1.485 0.99 1.485 0.99 3 2 C6.5 2.16666667 6.5 2.16666667 10 2 C10.99 2 11.98 2 13 2 C13 2.99 13 3.98 13 5 C9.04 4.67 5.08 4.34 1 4 C0.67 2.68 0.34 1.36 0 0 Z " fill="#D1E9F7" transform="translate(219,210)"/>
<path d="M0 0 C4.875 0.875 4.875 0.875 6 2 C6.04063832 3.66617115 6.042721 5.33388095 6 7 C1.125 3.375 1.125 3.375 0 0 Z " fill="#D8EFF6" transform="translate(352,200)"/>
<path d="M0 0 C0.66 0.33 1.32 0.66 2 1 C1.67 1.66 1.34 2.32 1 3 C1.66 3 2.32 3 3 3 C2.67 4.32 2.34 5.64 2 7 C-0.64 6.01 -3.28 5.02 -6 4 C-2 3 -2 3 -1 3 C-0.67 2.01 -0.34 1.02 0 0 Z " fill="#3279BB" transform="translate(336,193)"/>
<path d="M0 0 C1.65 0 3.3 0 5 0 C5 1.32 5 2.64 5 4 C3.35 4.33 1.7 4.66 0 5 C0 3.35 0 1.7 0 0 Z " fill="#ECFAFB" transform="translate(293,144)"/>
<path d="M0 0 C0.99 0.66 1.98 1.32 3 2 C2.01 3.485 2.01 3.485 1 5 C0.54398739 7.50896686 0.54398739 7.50896686 0.375 10.1875 C0.30023438 11.08855469 0.22546875 11.98960937 0.1484375 12.91796875 C0.09945313 13.60503906 0.05046875 14.29210937 0 15 C-0.33 15 -0.66 15 -1 15 C-1.22211116 13.06403108 -1.42722992 11.12610672 -1.625 9.1875 C-1.74101562 8.10855469 -1.85703125 7.02960938 -1.9765625 5.91796875 C-2 3 -2 3 0 0 Z " fill="#CCE3F0" transform="translate(316,137)"/>
<path d="M0 0 C1.485 0.99 1.485 0.99 3 2 C3 2.66 3 3.32 3 4 C3.99 4.33 4.98 4.66 6 5 C6 5.99 6 6.98 6 8 C3.13275314 7.42655063 2.1385485 7.1385485 0 5 C-0.125 2.375 -0.125 2.375 0 0 Z " fill="#D4E6F3" transform="translate(378,302)"/>
<path d="M0 0 C0 0.66 0 1.32 0 2 C-1.32 2.33 -2.64 2.66 -4 3 C-4 3.66 -4 4.32 -4 5 C-6.5 6.625 -6.5 6.625 -9 8 C-9 7.01 -9 6.02 -9 5 C-8.34 5 -7.68 5 -7 5 C-7 4.34 -7 3.68 -7 3 C-4.4385343 0.70351351 -3.52032428 0 0 0 Z " fill="#DCEFFA" transform="translate(348,278)"/>
<path d="M0 0 C4.29 0.66 8.58 1.32 13 2 C13 2.33 13 2.66 13 3 C8.915021 3.54466387 5.1274515 4 1 4 C0.67 2.68 0.34 1.36 0 0 Z " fill="#2C72B1" transform="translate(303,255)"/>
<path d="M0 0 C1.65 0 3.3 0 5 0 C4.625 1.9375 4.625 1.9375 4 4 C3.01 4.495 3.01 4.495 2 5 C2 4.34 2 3.68 2 3 C1.34 3 0.68 3 0 3 C-0.33 3.66 -0.66 4.32 -1 5 C-0.67 3.35 -0.34 1.7 0 0 Z " fill="#5FB0E0" transform="translate(202,185)"/>
<path d="M0 0 C0.515625 0.37125 1.03125 0.7425 1.5625 1.125 C0.5725 1.62 0.5725 1.62 -0.4375 2.125 C-0.7675 2.785 -1.0975 3.445 -1.4375 4.125 C-1.4375 3.465 -1.4375 2.805 -1.4375 2.125 C-3.4175 2.125 -5.3975 2.125 -7.4375 2.125 C-7.7675 2.785 -8.0975 3.445 -8.4375 4.125 C-8.7675 3.135 -9.0975 2.145 -9.4375 1.125 C-3.0375 -1.09038462 -3.0375 -1.09038462 0 0 Z " fill="#3A75A8" transform="translate(331.4375,141.875)"/>
<path d="M0 0 C1.32 0 2.64 0 4 0 C4 2.31 4 4.62 4 7 C3.67 6.01 3.34 5.02 3 4 C2.34 4 1.68 4 1 4 C0.67 4.66 0.34 5.32 0 6 C0 4.02 0 2.04 0 0 Z " fill="#D3EBFC" transform="translate(201,206)"/>
<path d="M0 0 C0.66 0 1.32 0 2 0 C1.979375 0.721875 1.95875 1.44375 1.9375 2.1875 C1.99820559 4.91925138 2.39258535 7.34256091 3 10 C2.67 9.34 2.34 8.68 2 8 C1.34 8 0.68 8 0 8 C0 6.35 0 4.7 0 3 C-0.66 2.67 -1.32 2.34 -2 2 C-1.34 1.34 -0.68 0.68 0 0 Z " fill="#6BB3D6" transform="translate(206,199)"/>
<path d="M0 0 C0.33 0 0.66 0 1 0 C1.144375 1.2375 1.28875 2.475 1.4375 3.75 C1.78688502 6.56504499 2.20379366 9.2701497 3 12 C0 10 0 10 -0.546875 8.125 C-0.61390625 7.42375 -0.6809375 6.7225 -0.75 6 C-0.82734375 5.29875 -0.9046875 4.5975 -0.984375 3.875 C-1 2 -1 2 0 0 Z " fill="#7BA9C6" transform="translate(220,186)"/>
<path d="M0 0 C0.99 0.33 1.98 0.66 3 1 C3.99 0.67 4.98 0.34 6 0 C6 1.32 6 2.64 6 4 C0.25 3.25 0.25 3.25 -2 1 C-1.34 0.67 -0.68 0.34 0 0 Z " fill="#3777B6" transform="translate(338,286)"/>
<path d="M0 0 C0.66 0 1.32 0 2 0 C1.67 1.65 1.34 3.3 1 5 C-0.98 5.33 -2.96 5.66 -5 6 C-3.625 4 -3.625 4 -2 2 C-1.34 2 -0.68 2 0 2 C0 1.34 0 0.68 0 0 Z " fill="#327BB9" transform="translate(336,242)"/>
<path d="M0 0 C0.99 0.33 1.98 0.66 3 1 C3 2.98 3 4.96 3 7 C2.01 7 1.02 7 0 7 C0 4.69 0 2.38 0 0 Z " fill="#FBEDF0" transform="translate(196,240)"/>
<path d="M0 0 C1.98 0.99 1.98 0.99 4 2 C3.67 3.98 3.34 5.96 3 8 C2.01 7.67 1.02 7.34 0 7 C0 4.69 0 2.38 0 0 Z " fill="#F4F4EE" transform="translate(213,201)"/>
<path d="M0 0 C0.33 0 0.66 0 1 0 C1.1875 3.375 1.1875 3.375 1 7 C0.01 7.66 -0.98 8.32 -2 9 C-2.25 3.375 -2.25 3.375 0 0 Z " fill="#D5EFFB" transform="translate(181,182)"/>
<path d="M0 0 C0.66 0.33 1.32 0.66 2 1 C2 3.31 2 5.62 2 8 C1.01 7.67 0.02 7.34 -1 7 C-0.67 4.69 -0.34 2.38 0 0 Z " fill="#D8F5FD" transform="translate(276,284)"/>
<path d="M0 0 C0.66 0 1.32 0 2 0 C2.93065133 2.60582371 3.14917407 3.64198224 2.0625 6.25 C1.5365625 7.11625 1.5365625 7.11625 1 8 C1.66 8 2.32 8 3 8 C2.67 8.66 2.34 9.32 2 10 C1.34 9.67 0.68 9.34 0 9 C0 6.03 0 3.06 0 0 Z " fill="#3F6985" transform="translate(278,283)"/>
<path d="M0 0 C0.33 0 0.66 0 1 0 C0.67 2.31 0.34 4.62 0 7 C-1.32 7 -2.64 7 -4 7 C-4 6.34 -4 5.68 -4 5 C-3.34 5 -2.68 5 -2 5 C-1.34 3.35 -0.68 1.7 0 0 Z " fill="#72A9C8" transform="translate(200,205)"/>
<path d="M0 0 C-0.66 0 -1.32 0 -2 0 C-2 0.66 -2 1.32 -2 2 C-4.97 2 -7.94 2 -11 2 C-10.67 1.34 -10.34 0.68 -10 0 C-6.35526801 -0.89093449 -3.57257469 -1.23666047 0 0 Z " fill="#225C98" transform="translate(302,188)"/>
<path d="M0 0 C-3.67259383 2.44839588 -6.54648201 4 -11 4 C-10.67 3.01 -10.34 2.02 -10 1 C-6.59437148 0.22157062 -3.49234244 -0.09978121 0 0 Z " fill="#D5F0F8" transform="translate(296,186)"/>
<path d="M0 0 C1.32 0.66 2.64 1.32 4 2 C4 4.97 4 7.94 4 11 C3.67 11 3.34 11 3 11 C3 8.36 3 5.72 3 3 C1.35 3 -0.3 3 -2 3 C-1.34 2.67 -0.68 2.34 0 2 C0 1.34 0 0.68 0 0 Z " fill="#CDE6F3" transform="translate(184,179)"/>
<path d="M0 0 C1.98 0 3.96 0 6 0 C6.33 0.99 6.66 1.98 7 3 C4.36 3 1.72 3 -1 3 C-0.67 2.01 -0.34 1.02 0 0 Z " fill="#E0EFF9" transform="translate(200,179)"/>
<path d="M0 0 C0 0.99 0 1.98 0 3 C-0.66 3 -1.32 3 -2 3 C-2.33 3.99 -2.66 4.98 -3 6 C-4.65 6 -6.3 6 -8 6 C-5.38485683 3.87961365 -2.80362384 1.86908256 0 0 Z " fill="#216DB4" transform="translate(424,310)"/>
<path d="M0 0 C-3.4352048 2.29013653 -4.985331 2.17842973 -9 2 C-9.33 1.34 -9.66 0.68 -10 0 C-6.30581799 -1.231394 -3.7943739 -0.64432764 0 0 Z " fill="#80B4D8" transform="translate(215,254)"/>
<path d="M0 0 C5.75 0.75 5.75 0.75 8 3 C5.36 3 2.72 3 0 3 C0 2.01 0 1.02 0 0 Z " fill="#CEE9F3" transform="translate(278,249)"/>
<path d="M0 0 C0.99 0 1.98 0 3 0 C3 3.63 3 7.26 3 11 C2.67 11 2.34 11 2 11 C1.34 7.37 0.68 3.74 0 0 Z " fill="#DAF2FC" transform="translate(367,224)"/>
<path d="M0 0 C1.125 1.75 1.125 1.75 2 4 C1.125 6.25 1.125 6.25 0 8 C-2.97 7.505 -2.97 7.505 -6 7 C-6 6.67 -6 6.34 -6 6 C-4.35 5.67 -2.7 5.34 -1 5 C-0.67 3.35 -0.34 1.7 0 0 Z " fill="#E9F9FE" transform="translate(212,208)"/>
<path d="M0 0 C0.66 0 1.32 0 2 0 C2 0.66 2 1.32 2 2 C2.99 1.67 3.98 1.34 5 1 C5 1.66 5 2.32 5 3 C4.01 3.66 3.02 4.32 2 5 C1.01 4.67 0.02 4.34 -1 4 C-0.67 2.68 -0.34 1.36 0 0 Z " fill="#7FC8F5" transform="translate(281,202)"/>
<path d="M0 0 C-0.33 2.64 -0.66 5.28 -1 8 C-1.66 7.67 -2.32 7.34 -3 7 C-3 5.02 -3 3.04 -3 1 C-1 0 -1 0 0 0 Z " fill="#72ADD6" transform="translate(246,203)"/>
<path d="M0 0 C2.875 0.1875 2.875 0.1875 6 1 C7.375 3.5625 7.375 3.5625 8 6 C4.63408134 4.55746343 2.48952921 2.66735273 0 0 Z " fill="#C6DCEA" transform="translate(341,192)"/>
<path d="M0 0 C2 1.125 2 1.125 4 3 C4.25 6.1875 4.25 6.1875 4 9 C1.18167487 7.59083743 0.97406539 5.92219617 0 3 C0 2.01 0 1.02 0 0 Z " fill="#E2F5FC" transform="translate(274,168)"/>
<path d="M0 0 C1.98 0 3.96 0 6 0 C5 1.5 5 1.5 3 3 C0.28153765 3.27345479 -2.25677199 3.13491285 -5 3 C-5 2.67 -5 2.34 -5 2 C-3.35 1.67 -1.7 1.34 0 1 C0 0.67 0 0.34 0 0 Z " fill="#4D7CA5" transform="translate(421,315)"/>
<path d="M0 0 C0.99 0.33 1.98 0.66 3 1 C3 2.65 3 4.3 3 6 C2.01 6 1.02 6 0 6 C0 4.02 0 2.04 0 0 Z " fill="#FBFBED" transform="translate(419,301)"/>
<path d="M0 0 C2.875 -0.125 2.875 -0.125 6 0 C6.66 0.66 7.32 1.32 8 2 C4.71303767 2.79953138 3.28976808 3.09658936 0 2 C0 1.34 0 0.68 0 0 Z " fill="#246AB1" transform="translate(287,293)"/>
<path d="M0 0 C3.63 0 7.26 0 11 0 C11 0.99 11 1.98 11 3 C7.37 2.34 3.74 1.68 0 1 C0 0.67 0 0.34 0 0 Z " fill="#BAD6E8" transform="translate(293,291)"/>
<path d="M0 0 C1.65 0.33 3.3 0.66 5 1 C5 1.99 5 2.98 5 4 C4.34 3.67 3.68 3.34 3 3 C1.68 3 0.36 3 -1 3 C-0.67 2.01 -0.34 1.02 0 0 Z " fill="#4173A4" transform="translate(413,274)"/>
<path d="M0 0 C1.32 0.66 2.64 1.32 4 2 C2.625 3.5 2.625 3.5 1 5 C0.34 5 -0.32 5 -1 5 C-1.33 4.01 -1.66 3.02 -2 2 C-1.34 2 -0.68 2 0 2 C0 1.34 0 0.68 0 0 Z " fill="#196EB2" transform="translate(293,248)"/>
<path d="M0 0 C0.66 0 1.32 0 2 0 C2 1.98 2 3.96 2 6 C1.01 6 0.02 6 -1 6 C-1.042721 4.33388095 -1.04063832 2.66617115 -1 1 C-0.67 0.67 -0.34 0.34 0 0 Z " fill="#D2EFF7" transform="translate(217,202)"/>
<path d="M0 0 C2 2 2 2 2.125 4.625 C2.08375 5.40875 2.0425 6.1925 2 7 C1.01 6.67 0.02 6.34 -1 6 C-1.042721 4.33388095 -1.04063832 2.66617115 -1 1 C-0.67 0.67 -0.34 0.34 0 0 Z " fill="#6DABD6" transform="translate(254,204)"/>
<path d="M0 0 C0.66 0.33 1.32 0.66 2 1 C1.25 5.75 1.25 5.75 -1 8 C-1.04241723 5.66705225 -1.04092937 3.33297433 -1 1 C-0.67 0.67 -0.34 0.34 0 0 Z " fill="#71BFDE" transform="translate(199,200)"/>
<path d="M0 0 C2.46800047 1.15173355 4.04783565 2.04783565 6 4 C5.67 4.99 5.34 5.98 5 7 C3.29115995 5.37660195 1.62553283 3.70680947 0 2 C0 1.34 0 0.68 0 0 Z " fill="#2F6291" transform="translate(351,202)"/>
</svg>
